<?xml version="1.0" standalone="no"?>
<!DOCTYPE svg PUBLIC "-//W3C//DTD SVG 1.1//EN" "http://www.w3.org/Graphics/SVG/1.1/DTD/svg11.dtd" >
<svg>
<metadata>
Created by FontForge 20120731 at Fri Jul  5 04:31:10 2019
 By www
Copyright (c) 1985, 1987, 1989, 1990 Adobe Systems Incorporated.  All Rights Reserved.Times is a trademark of Linotype AG and/or its subsidiaries.
</metadata>
<defs>
<font id="Times-Roman" horiz-adv-x="500" >
  <font-face 
    font-family="Times"
    font-weight="500"
    font-stretch="normal"
    units-per-em="1000"
    panose-1="0 0 0 0 0 0 0 0 0 0"
    ascent="800"
    descent="-200"
    x-height="450"
    cap-height="662"
    bbox="-168 -218 1000 898"
    underline-thickness="50"
    underline-position="-75"
    stemh="28"
    stemv="84"
    unicode-range="U+0020-FB02"
  />
<missing-glyph horiz-adv-x="250" 
 />
    <glyph glyph-name=".notdef" horiz-adv-x="250" 
 />
    <glyph glyph-name="space" unicode=" " horiz-adv-x="250" 
 />
    <glyph glyph-name="exclam" unicode="!" horiz-adv-x="333" 
d="M189 176h-13l-9 108c-6 70 -37 263 -37 308c0 39 11 84 52 84c49 0 60 -51 52 -117zM183 -9c-21 0 -53 13 -53 51c0 31 24 54 53 54c31 0 55 -25 55 -54c0 -36 -31 -51 -55 -51z" />
    <glyph glyph-name="quotedbl" unicode="&#x22;" horiz-adv-x="408" 
d="M299 431h-21c-10 55 -32 176 -32 204c0 27 23 41 43 41c19 0 42 -14 42 -41c0 -28 -22 -149 -32 -204zM130 431h-21c-10 55 -32 176 -32 204c0 27 23 41 43 41c19 0 42 -14 42 -41c0 -28 -22 -149 -32 -204z" />
    <glyph glyph-name="numbersign" unicode="#" 
d="M471 271v-55h-109l-31 -216h-58l31 216h-134l-33 -216h-58l33 216h-107v55h116l21 134h-110v55h118l31 202h58l-31 -202h133l30 202h58l-30 -202h97v-55h-105l-20 -134h100zM333 405h-133l-21 -134h134z" />
    <glyph glyph-name="dollar" unicode="$" 
d="M425 500h-15c-21 110 -95 131 -146 137v-246c129 -74 193 -109 193 -217c0 -115 -88 -160 -193 -174v-87h-34v87c-99 0 -159 34 -186 51v130h15c22 -101 77 -153 171 -153v282c-91 51 -178 103 -178 201c0 71 51 145 178 153v63h34v-63c47 -6 117 -14 161 -53v-111z
M229 407v230c-97 -16 -103 -83 -103 -105c0 -53 43 -85 103 -125zM264 293v-265c33 6 114 21 114 123c0 71 -51 103 -114 142z" />
    <glyph glyph-name="percent" unicode="%" horiz-adv-x="833" 
d="M663 371c36 0 109 -7 109 -110c0 -111 -79 -261 -200 -261c-93 0 -123 68 -123 137c0 106 104 234 214 234zM676 339c-97 0 -151 -191 -151 -233c0 -20 0 -76 64 -76c87 0 157 139 157 224c0 49 -30 85 -70 85zM634 676l-385 -689h-48l349 622l-2 2
c-23 -13 -51 -28 -105 -28c-39 0 -51 4 -66 10c4 -14 7 -24 7 -45c0 -104 -77 -259 -206 -259c-45 0 -117 35 -117 136c0 100 97 237 215 237c46 0 60 -13 76 -27c16 -13 34 -27 86 -27c84 0 125 38 157 68h39zM199 323c80 0 160 118 160 230c0 17 -3 28 -9 47
c-63 16 -50 32 -69 32c-66 0 -144 -152 -144 -235c0 -55 23 -74 62 -74z" />
    <glyph glyph-name="ampersand" unicode="&#x26;" horiz-adv-x="778" 
d="M281 557c0 -48 20 -100 40 -141c27 14 117 61 117 144c0 50 -36 84 -79 84c-41 0 -78 -25 -78 -87zM711 426v-21c-36 -5 -66 -9 -94 -59l-26 -46c-37 -65 -37 -65 -100 -150c9 -14 74 -92 148 -92c52 0 72 23 96 53l15 -11c-1 -4 -45 -113 -151 -113
c-81 0 -141 61 -170 91c-40 -35 -103 -91 -222 -91c-61 0 -165 26 -165 157c0 104 91 173 157 211l38 22c-22 61 -35 94 -35 142c0 72 52 157 153 157c73 0 136 -44 136 -120c0 -98 -91 -142 -155 -172c36 -72 81 -144 132 -206c29 38 91 120 91 181c0 38 -27 43 -64 46v21
h216zM134 180c0 -77 58 -141 129 -141c23 0 72 7 141 65c-58 70 -110 159 -152 239c-45 -29 -118 -75 -118 -163z" />
    <glyph glyph-name="quoteright" unicode="&#x2019;" horiz-adv-x="333" 
d="M106 433l-9 19c66 42 82 87 82 106c0 9 -7 14 -14 14c-2 0 -5 -1 -9 -2c-3 -1 -8 -2 -15 -2c-26 0 -62 10 -62 50c0 43 33 58 58 58c23 0 81 -13 81 -96c0 -71 -82 -137 -112 -147z" />
    <glyph glyph-name="parenleft" unicode="(" horiz-adv-x="333" 
d="M295 676l9 -16c-74 -59 -170 -137 -170 -391c0 -102 0 -321 170 -430l-12 -16c-58 31 -124 101 -162 157c-49 72 -82 144 -82 282c0 172 92 322 247 414z" />
    <glyph glyph-name="parenright" unicode=")" horiz-adv-x="333" 
d="M38 -177l-9 16c74 59 170 137 170 391c0 102 0 321 -170 430l12 16c58 -31 124 -101 162 -157c49 -72 82 -144 82 -282c0 -172 -92 -322 -247 -414z" />
    <glyph glyph-name="asterisk" unicode="*" 
d="M69 383c0 63 81 30 165 88l-11 7c-68 43 -154 21 -154 79c0 7 6 34 33 34c45 0 44 -54 139 -105v13c0 81 -25 94 -25 138c0 39 30 39 37 39c26 0 34 -26 34 -39c0 -27 -27 -75 -27 -127v-26l7 4c65 37 91 105 128 105c12 0 36 -8 36 -36c0 -64 -60 -22 -163 -87l8 -5
c81 -51 156 -20 156 -79c0 -24 -17 -36 -36 -36c-44 0 -67 77 -129 103l-7 3v-7c0 -99 28 -112 28 -142c0 -19 -14 -42 -39 -42c-17 0 -35 14 -35 39c0 31 36 85 27 145l-1 7c-51 -34 -51 -34 -76 -62c-33 -37 -38 -43 -61 -43c-26 0 -34 21 -34 32z" />
    <glyph glyph-name="plus" unicode="+" horiz-adv-x="564" 
d="M249 286v220h66v-220h219v-66h-219v-220h-66v220h-219v66h219z" />
    <glyph glyph-name="comma" unicode="," horiz-adv-x="250" 
d="M83 -141l-9 19c66 42 82 87 82 106c0 9 -7 14 -14 14c-2 0 -5 -1 -9 -2c-3 -1 -8 -2 -15 -2c-26 0 -62 10 -62 50c0 43 33 58 58 58c23 0 81 -13 81 -96c0 -71 -82 -137 -112 -147z" />
    <glyph glyph-name="hyphen" unicode="-" horiz-adv-x="333" 
d="M39 257h246v-63h-246v63z" />
    <glyph glyph-name="period" unicode="." horiz-adv-x="250" 
d="M125 -11c-21 0 -55 16 -55 54c0 32 25 57 55 57s56 -26 56 -57c0 -37 -35 -54 -56 -54z" />
    <glyph glyph-name="slash" unicode="/" horiz-adv-x="278" 
d="M287 676l-228 -690h-68l229 690h67z" />
    <glyph glyph-name="zero" unicode="0" 
d="M250 650c-128 0 -130 -251 -130 -319c0 -81 2 -319 130 -319s130 240 130 319c0 68 -2 319 -130 319zM250 676c184 0 226 -227 226 -345c0 -121 -42 -345 -226 -345s-226 224 -226 345c0 118 42 345 226 345z" />
    <glyph glyph-name="one" unicode="1" 
d="M118 0v15c58 2 95 4 95 78v453c0 21 0 47 -34 47c-12 0 -12 0 -68 -22v14l180 91l8 -2v-600c0 -48 20 -59 95 -59v-15h-276z" />
    <glyph glyph-name="two" unicode="2" 
d="M475 137l-55 -137h-390v12l178 189c87 93 130 183 130 258c0 51 -25 143 -143 143c-91 0 -121 -76 -143 -130l-21 5c30 151 124 199 212 199c91 0 181 -68 181 -180c0 -106 -84 -197 -128 -244l-168 -176h239c37 0 56 3 95 66z" />
    <glyph glyph-name="three" unicode="3" 
d="M153 330l-1 13c91 29 166 77 166 169c0 51 -36 104 -110 104c-91 0 -133 -78 -148 -106l-15 4c40 131 129 162 196 162c129 0 156 -94 156 -135c0 -54 -27 -97 -93 -140c42 -18 127 -53 127 -185c0 -142 -120 -230 -277 -230c-24 0 -111 5 -111 57c0 28 23 35 39 35
c46 0 84 -56 143 -56c93 0 134 79 134 154c0 25 -12 99 -76 132c-36 19 -61 24 -130 22z" />
    <glyph glyph-name="four" unicode="4" 
d="M472 231v-64h-102v-167h-77v167h-281v64l314 445h44v-445h102zM292 231v340h-2l-238 -340h240z" />
    <glyph glyph-name="five" unicode="5" 
d="M181 583l-42 -85c80 -14 174 -31 233 -103c43 -52 54 -81 54 -170c0 -133 -110 -239 -268 -239c-79 0 -126 24 -126 60c0 10 0 39 40 39c64 0 91 -62 145 -62c65 0 139 56 139 178c0 160 -177 207 -285 211c-6 0 -9 6 -6 13l109 237h209c26 0 35 11 46 26l9 -7l-38 -89
c-3 -9 -12 -9 -23 -9h-196z" />
    <glyph glyph-name="six" unicode="6" 
d="M446 684l2 -16c-178 -28 -277 -163 -296 -285c55 33 76 45 132 45c106 0 184 -76 184 -210c0 -73 -36 -232 -214 -232c-118 0 -220 95 -220 305c0 203 170 385 412 393zM242 382c-34 0 -70 -8 -95 -32c-10 -10 -20 -34 -20 -94c0 -168 67 -242 142 -242
c63 0 109 52 109 165c0 103 -30 203 -136 203z" />
    <glyph glyph-name="seven" unicode="7" 
d="M449 662v-16l-212 -654h-65l198 596h-217c-65 0 -83 -29 -116 -81l-17 8l43 103l16 44h370z" />
    <glyph glyph-name="eight" unicode="8" 
d="M212 312c-32 -26 -80 -65 -80 -156c0 -77 46 -142 127 -142c63 0 110 42 110 112c0 74 -42 104 -157 186zM56 146c0 87 41 118 130 186c-84 74 -124 108 -124 189c0 101 101 155 187 155c113 0 175 -66 175 -142c0 -92 -80 -134 -134 -163c134 -96 155 -154 155 -221
c0 -52 -33 -164 -199 -164c-124 0 -190 82 -190 160zM136 547c0 -78 89 -135 125 -158c38 25 94 62 94 150c0 55 -35 109 -112 109c-75 0 -107 -53 -107 -101z" />
    <glyph glyph-name="nine" unicode="9" 
d="M59 -22l-3 20c242 40 297 267 303 292l-2 2c-44 -37 -97 -55 -147 -55c-134 0 -180 116 -180 198c0 133 80 241 210 241c123 0 219 -113 219 -280c0 -212 -146 -402 -400 -418zM362 355v39c0 59 0 254 -133 254c-84 0 -107 -93 -107 -175c0 -76 22 -193 128 -193
c33 0 75 18 96 35c13 10 16 22 16 40z" />
    <glyph glyph-name="colon" unicode=":" horiz-adv-x="278" 
d="M136 348c-21 0 -55 16 -55 54c0 32 25 57 55 57s56 -26 56 -57c0 -37 -35 -54 -56 -54zM136 -11c-21 0 -55 16 -55 54c0 32 25 57 55 57s56 -26 56 -57c0 -37 -35 -54 -56 -54z" />
    <glyph glyph-name="semicolon" unicode=";" horiz-adv-x="278" 
d="M107 -141l-9 19c66 42 82 87 82 106c0 9 -7 14 -14 14c-2 0 -5 -1 -9 -2c-3 -1 -8 -2 -15 -2c-32 0 -62 13 -62 50c0 55 48 58 59 58c21 0 80 -12 80 -96c0 -70 -79 -135 -112 -147zM136 348c-21 0 -55 16 -55 54c0 32 25 57 55 57s56 -26 56 -57c0 -37 -35 -54 -56 -54z
" />
    <glyph glyph-name="less" unicode="&#x3c;" horiz-adv-x="564" 
d="M536 60v-68l-508 230v62l508 230v-68l-425 -193z" />
    <glyph glyph-name="equal" unicode="=" horiz-adv-x="564" 
d="M534 386v-66h-504v66h504zM534 186v-66h-504v66h504z" />
    <glyph glyph-name="greater" unicode="&#x3e;" horiz-adv-x="564" 
d="M28 60l425 193l-425 193v68l508 -230v-62l-508 -230v68z" />
    <glyph glyph-name="question" unicode="?" horiz-adv-x="444" 
d="M244 164h-17c0 59 24 128 30 142l28 64c18 40 37 109 37 149c0 60 -33 127 -110 127c-42 0 -93 -28 -93 -61c0 -27 38 -39 38 -75c0 -17 -11 -41 -39 -41c-40 0 -50 29 -50 63c0 101 94 144 163 144c57 0 123 -29 147 -58c27 -33 36 -56 36 -108c0 -51 -45 -121 -75 -156
c-55 -64 -81 -104 -95 -190zM237 -8c-21 0 -53 13 -53 51c0 31 24 54 53 54c31 0 55 -25 55 -54c0 -36 -31 -51 -55 -51z" />
    <glyph glyph-name="at" unicode="@" horiz-adv-x="921" 
d="M572 399c0 42 -13 65 -43 65c-48 0 -137 -72 -137 -193c0 -60 28 -84 63 -84c42 0 104 71 117 212zM688 73l12 -30c-63 -29 -131 -57 -209 -57c-261 0 -375 195 -375 329c0 216 167 361 365 361c184 0 328 -126 328 -295c0 -102 -67 -238 -186 -238c-66 0 -90 58 -89 71
h-2c-11 -18 -57 -64 -115 -70c-28 -1 -96 11 -96 124c0 70 62 240 197 240c46 0 58 -28 71 -52l10 38h69l-65 -254c-3 -15 -9 -64 36 -64c81 0 130 118 130 204c0 114 -105 265 -288 265c-153 0 -281 -118 -281 -340c0 -143 116 -280 290 -280c89 0 141 22 198 48z" />
    <glyph glyph-name="A" unicode="A" horiz-adv-x="722" 
d="M706 19v-19h-255v19c37 0 70 1 70 38c0 16 -13 49 -19 63l-41 96h-262l-46 -117c-5 -13 -8 -27 -8 -38c0 -42 47 -42 68 -42v-19h-198v19c16 1 33 3 51 22c23 25 54 98 73 142l208 491h20l249 -568c32 -73 46 -84 90 -87zM216 257h231l-116 275z" />
    <glyph glyph-name="B" unicode="B" horiz-adv-x="667" 
d="M17 643v19h280c87 0 262 -14 262 -169c0 -111 -88 -133 -133 -144v-2c87 -18 167 -66 167 -171c0 -38 -20 -176 -242 -176h-334v19c84 2 96 19 96 90v444c0 74 -14 86 -96 90zM215 326v-248c0 -37 18 -41 76 -41c66 0 187 9 187 143c0 82 -49 115 -101 131
c-34 10 -66 15 -162 15zM215 595v-230l95 1c28 0 147 2 147 121s-104 138 -175 138c-21 0 -35 -1 -45 -1c-20 0 -22 -14 -22 -29z" />
    <glyph glyph-name="C" unicode="C" horiz-adv-x="667" 
d="M620 451h-23c-25 105 -97 185 -220 185c-50 0 -108 -20 -150 -61c-39 -38 -83 -102 -83 -246c0 -212 119 -299 245 -299c123 0 195 71 226 101l18 -18c-1 -2 -87 -127 -271 -127c-161 0 -334 96 -334 345c0 224 168 345 340 345c89 0 154 -33 176 -33c5 0 38 0 46 33h21z
" />
    <glyph glyph-name="D" unicode="D" horiz-adv-x="722" 
d="M16 0v19c76 4 88 20 88 90v444c0 74 -11 84 -88 90v19h270c240 0 399 -109 399 -333c0 -133 -79 -329 -385 -329h-284zM206 586v-508c0 -34 12 -41 60 -41c64 0 310 0 310 291c0 84 -24 165 -93 227c-48 43 -104 70 -230 70c-47 0 -47 -19 -47 -39z" />
    <glyph glyph-name="E" unicode="E" horiz-adv-x="611" 
d="M597 169l-45 -169h-540v19c64 4 87 13 87 90v444c0 79 -24 85 -87 90v19h531l3 -143h-25c-15 89 -41 105 -152 105h-135c-21 0 -33 0 -33 -34v-222h154c89 0 99 24 110 95h23v-232h-23c-12 80 -27 94 -110 95l-154 2v-248c0 -41 0 -42 149 -42c125 0 175 30 219 131h28z
" />
    <glyph glyph-name="F" unicode="F" horiz-adv-x="556" 
d="M479 231h-23c-11 84 -35 94 -110 95l-145 2v-219c0 -75 20 -87 91 -90v-19h-280v19c75 4 87 19 87 101v433c0 79 -24 85 -87 90v19h531l3 -143h-25c-15 89 -41 105 -152 105h-136c-25 0 -32 -4 -32 -34v-222h145c82 0 100 20 110 95h23v-232z" />
    <glyph glyph-name="G" unicode="G" horiz-adv-x="722" 
d="M709 354v-18c-44 -4 -70 -6 -70 -77v-201c0 -14 -133 -72 -243 -72c-99 0 -210 30 -281 107c-53 58 -83 117 -83 248c0 168 130 335 342 335c101 0 147 -33 179 -33c8 0 41 5 47 33h22l8 -211h-23c-27 72 -79 171 -219 171c-95 0 -242 -63 -242 -316
c0 -181 104 -294 259 -294c68 0 137 23 137 59v162c0 83 -20 84 -88 89v18h255z" />
    <glyph glyph-name="H" unicode="H" horiz-adv-x="722" 
d="M19 0v19c84 4 88 26 88 101v433c0 74 -14 84 -88 90v19h278v-19c-76 -6 -88 -19 -88 -90v-194h303v194c0 74 -14 84 -88 90v19h278v-19c-76 -6 -88 -19 -88 -90v-444c0 -66 10 -85 88 -90v-19h-278v19c84 4 88 26 88 101v195h-303v-206c0 -66 10 -85 88 -90v-19h-278z
" />
    <glyph glyph-name="I" unicode="I" horiz-adv-x="333" 
d="M18 0v19c85 2 97 19 97 90v444c0 74 -14 86 -97 90v19h297v-19c-73 -3 -98 -10 -98 -90v-444c0 -78 24 -88 98 -90v-19h-297z" />
    <glyph glyph-name="J" unicode="J" horiz-adv-x="389" 
d="M278 553v-370c0 -194 -141 -197 -168 -197c-42 0 -67 13 -78 25c-16 18 -22 34 -22 48c0 19 17 49 46 49c68 0 43 -84 81 -84c24 0 39 14 39 66v463c0 71 -12 85 -93 90v19h287v-19c-78 -5 -92 -16 -92 -90z" />
    <glyph glyph-name="K" unicode="K" horiz-adv-x="722" 
d="M413 643v19h262v-19c-60 -5 -81 -8 -152 -78l-190 -188l233 -250c65 -72 100 -110 157 -108v-19h-305v19c53 2 70 3 70 25c0 31 -96 134 -130 168l-106 105l-26 -21v-187c0 -70 12 -86 90 -90v-19h-282v19c78 4 90 19 90 101v433c0 78 -22 85 -90 90v19h284v-19
c-78 -5 -92 -16 -92 -90v-205c226 203 255 230 255 264c0 27 -19 29 -68 31z" />
    <glyph glyph-name="L" unicode="L" horiz-adv-x="611" 
d="M294 662v-19c-68 -4 -93 -11 -93 -90v-473c0 -40 18 -41 101 -41c150 0 214 4 271 135h25l-48 -174h-538v19c64 4 87 13 87 90v444c0 79 -24 85 -87 90v19h282z" />
    <glyph glyph-name="M" unicode="M" horiz-adv-x="889" 
d="M863 662v-19c-63 -5 -87 -11 -87 -90v-444c0 -77 23 -86 87 -90v-19h-280v19c78 4 91 19 91 101v449h-2l-254 -569h-14l-249 546h-2v-399c0 -103 21 -125 94 -128v-19h-235v19c76 5 97 20 97 128v406c0 78 -21 86 -95 90v19h198l231 -505l221 505h199z" />
    <glyph glyph-name="N" unicode="N" horiz-adv-x="722" 
d="M707 662v-19c-63 -7 -95 -11 -95 -128v-526h-17l-440 548h-2v-390c0 -103 21 -125 94 -128v-19h-235v19c76 5 97 20 97 128v441c-41 50 -57 55 -97 55v19h171l383 -481h2v334c0 115 -28 123 -96 128v19h235z" />
    <glyph glyph-name="O" unicode="O" horiz-adv-x="722" 
d="M361 -14c-181 0 -327 131 -327 344c0 230 163 346 327 346s327 -116 327 -346c0 -213 -146 -344 -327 -344zM361 22c111 0 213 89 213 309c0 228 -111 309 -213 309s-213 -81 -213 -309c0 -220 102 -309 213 -309z" />
    <glyph glyph-name="P" unicode="P" horiz-adv-x="556" 
d="M16 643v19h264c138 0 262 -53 262 -180c0 -78 -44 -119 -61 -135c-43 -41 -107 -59 -212 -59c-24 0 -43 1 -67 3v-182c0 -73 17 -88 94 -90v-19h-280v19c84 6 84 29 84 101v433c0 71 -11 83 -84 90zM202 591v-260c19 -2 39 -3 60 -3c37 0 171 0 171 152
c0 143 -146 145 -190 145c-30 0 -41 -1 -41 -34z" />
    <glyph glyph-name="Q" unicode="Q" horiz-adv-x="722" 
d="M701 -159v-18c-14 -1 -34 -1 -47 -1c-134 0 -264 33 -342 122l-47 55c-93 25 -231 118 -231 331c0 229 163 346 327 346s327 -116 327 -346c0 -220 -154 -324 -262 -337c9 -17 62 -69 79 -83c47 -37 104 -67 196 -69zM361 640c-102 0 -213 -81 -213 -310
c0 -219 102 -308 213 -308s213 89 213 308c0 229 -111 310 -213 310z" />
    <glyph glyph-name="R" unicode="R" horiz-adv-x="667" 
d="M659 19v-19h-161l-238 308l-56 -2v-197c0 -67 10 -86 90 -90v-19h-277v19c81 5 85 26 85 101v433c0 74 -15 83 -85 90v19h276c89 0 254 -21 254 -175c0 -134 -130 -158 -181 -168l206 -253c22 -27 46 -45 87 -47zM204 589v-246c84 1 234 3 234 146
c0 133 -131 136 -172 136c-53 0 -62 -7 -62 -36z" />
    <glyph glyph-name="S" unicode="S" horiz-adv-x="556" 
d="M447 676l22 -213h-25c-17 82 -81 172 -186 172c-50 0 -101 -31 -101 -93c0 -150 334 -170 334 -375c0 -85 -68 -181 -211 -181c-76 0 -125 34 -155 34c-21 0 -31 -17 -31 -33h-22l-30 212h23c19 -47 70 -177 205 -177c80 0 120 57 120 111c0 57 -16 91 -163 177
c-92 53 -156 97 -156 196c0 114 91 170 181 170c60 0 114 -34 139 -34c28 0 33 23 35 34h21z" />
    <glyph glyph-name="T" unicode="T" horiz-adv-x="611" 
d="M452 19v-19h-292v19c91 4 94 27 94 101v500h-54c-110 0 -137 -19 -159 -128h-24l6 170h564l6 -170h-24c-21 110 -49 128 -159 128h-54v-511c0 -68 12 -87 96 -90z" />
    <glyph glyph-name="U" unicode="U" horiz-adv-x="722" 
d="M705 662v-19c-77 -8 -94 -23 -94 -128v-261c0 -80 0 -268 -259 -268c-248 0 -248 195 -248 255v312c0 74 -14 85 -90 90v19h283v-19c-79 -6 -91 -19 -91 -90v-320c0 -64 0 -203 174 -203c78 0 135 32 164 79c13 22 23 55 23 136v270c0 107 -24 124 -94 128v19h232z" />
    <glyph glyph-name="V" unicode="V" horiz-adv-x="722" 
d="M697 662v-19c-48 -3 -62 -17 -92 -93l-222 -561h-15l-246 549c-41 91 -59 103 -106 105v19h266v-19c-56 -3 -75 -5 -75 -37c0 -15 18 -56 41 -107l151 -338l147 367c2 6 19 48 19 69c0 41 -35 44 -73 46v19h205z" />
    <glyph glyph-name="W" unicode="W" horiz-adv-x="944" 
d="M932 662v-19c-49 -8 -65 -22 -79 -61c-69 -186 -149 -400 -208 -593h-15c-35 104 -117 314 -160 423l-154 -423h-15c-51 153 -155 437 -193 537c-32 83 -46 112 -103 117v19h245v-19c-45 -2 -65 -8 -65 -34c0 -14 6 -31 11 -44l144 -376l107 282l-33 82
c-33 83 -48 89 -101 90v19h267v-19c-31 0 -77 -2 -77 -38c0 -17 12 -39 27 -78l132 -341l125 339c8 21 16 51 16 72c0 39 -35 43 -69 46v19h198z" />
    <glyph glyph-name="X" unicode="X" horiz-adv-x="722" 
d="M696 662v-19c-53 -4 -79 -7 -149 -94l-146 -182l192 -274c39 -55 59 -69 111 -74v-19h-297v19c50 3 77 3 77 34c0 18 -35 72 -51 95l-95 140l-119 -148c-21 -26 -52 -65 -52 -84c0 -32 37 -35 76 -37v-19h-233v19c55 4 66 17 145 114l157 193l-109 160
c-102 150 -123 152 -181 157v19h302v-19c-52 -1 -76 -2 -76 -32c0 -20 18 -53 85 -148l42 -59l113 138c23 29 40 49 40 68c0 31 -36 32 -70 33v19h238z" />
    <glyph glyph-name="Y" unicode="Y" horiz-adv-x="722" 
d="M703 662v-19c-36 -4 -69 -8 -138 -114l-148 -226v-194c0 -72 13 -89 103 -90v-19h-306v19c98 2 101 25 101 101v174l-131 192c-102 150 -117 153 -162 157v19h280v-19c-46 -2 -71 -3 -71 -31c0 -11 8 -30 17 -43l148 -222l143 226c7 11 14 23 14 37c0 31 -38 33 -69 33
v19h219z" />
    <glyph glyph-name="Z" unicode="Z" horiz-adv-x="611" 
d="M574 176h23l-24 -176h-564v15l437 609h-221c-143 0 -155 -66 -168 -133h-26l20 171h526v-15l-432 -609h257c131 0 150 65 172 138z" />
    <glyph glyph-name="bracketleft" unicode="[" horiz-adv-x="333" 
d="M299 637h-90c-45 0 -45 -30 -45 -44v-672c0 -12 0 -52 49 -52h86v-25h-211v818h211v-25z" />
    <glyph glyph-name="backslash" unicode="\" horiz-adv-x="278" 
d="M-9 676h67l229 -690h-68z" />
    <glyph glyph-name="bracketright" unicode="]" horiz-adv-x="333" 
d="M34 -131h90c45 0 45 30 45 44v672c0 12 0 52 -49 52h-86v25h211v-818h-211v25z" />
    <glyph glyph-name="asciicircum" unicode="^" horiz-adv-x="469" 
d="M92 297h-68l181 365h60l181 -365h-68l-143 289z" />
    <glyph glyph-name="underscore" unicode="_" 
d="M500 -125h-500v50h500v-50z" />
    <glyph glyph-name="quoteleft" unicode="&#x2018;" horiz-adv-x="333" 
d="M227 676l9 -19c-66 -42 -82 -87 -82 -106c0 -9 7 -14 14 -14c2 0 5 1 9 2c3 1 8 2 15 2c26 0 62 -10 62 -50c0 -43 -33 -58 -58 -58c-23 0 -81 13 -81 96c0 71 82 137 112 147z" />
    <glyph glyph-name="a" unicode="a" horiz-adv-x="444" 
d="M287 123v145c-151 -50 -162 -106 -162 -140v-2c0 -47 29 -78 66 -78c22 0 53 13 62 18c31 15 34 27 34 57zM442 66v-26c-42 -49 -73 -50 -89 -50c-18 0 -60 1 -65 73c-37 -33 -90 -73 -145 -73c-54 0 -106 37 -106 104c0 100 87 134 250 198v61c0 72 -47 83 -77 83
c-33 0 -71 -18 -71 -49c0 -15 5 -30 5 -39c0 -21 -19 -43 -45 -43c-31 0 -43 28 -43 44c0 40 47 111 163 111c149 0 149 -100 149 -160v-195c0 -29 0 -58 29 -58c21 0 34 10 45 19z" />
    <glyph glyph-name="b" unicode="b" 
d="M153 322v-252c0 -35 71 -48 96 -48c115 0 131 113 131 179c0 93 -36 196 -127 196c-32 0 -96 -18 -100 -75zM69 54v519c0 30 0 51 -44 51c-6 0 -16 0 -22 -1v16c48 13 97 27 145 44l5 -2v-302h2c6 23 59 81 135 81c121 0 178 -115 178 -222c0 -90 -59 -248 -244 -248
c-50 0 -155 27 -155 64z" />
    <glyph glyph-name="c" unicode="c" horiz-adv-x="444" 
d="M398 156l14 -9c-54 -114 -119 -157 -200 -157c-80 0 -187 65 -187 223c0 164 116 247 224 247c36 0 81 -15 106 -31c30 -21 43 -52 43 -70c0 -23 -16 -42 -46 -44c-26 -2 -43 24 -49 46l-6 22c-8 30 -13 48 -66 48c-37 0 -129 -31 -129 -178c0 -115 69 -191 153 -191
c72 0 109 43 143 94z" />
    <glyph glyph-name="d" unicode="d" 
d="M340 102v230c-7 68 -56 100 -103 100c-56 0 -124 -49 -124 -185c0 -149 72 -205 138 -205c42 0 81 24 89 60zM491 58v-16c-48 -17 -94 -33 -147 -52l-4 3v61h-2c-18 -27 -55 -64 -129 -64c-39 0 -182 20 -182 224c0 131 95 246 207 246c43 0 73 -14 106 -43v156
c0 30 0 51 -44 51c-6 0 -16 0 -24 -1v16c50 13 99 27 147 44l5 -2v-567c0 -41 0 -61 67 -56z" />
    <glyph glyph-name="e" unicode="e" horiz-adv-x="444" 
d="M408 164l16 -7c-10 -31 -68 -167 -212 -167c-111 0 -187 82 -187 224c0 185 124 246 204 246c94 0 165 -52 176 -183h-311c12 -177 93 -218 159 -218c89 0 132 68 155 105zM97 309h206c-7 48 -17 115 -96 115c-55 0 -94 -27 -110 -115z" />
    <glyph glyph-name="f" unicode="f" horiz-adv-x="333" 
d="M309 450v-32h-122v-314c0 -61 1 -87 93 -89v-15h-260v15c66 3 83 12 83 89v314h-82v32h82c0 56 0 233 180 233c56 0 100 -27 100 -61c0 -29 -23 -42 -43 -42c-42 0 -47 75 -94 75c-55 0 -60 -52 -60 -89v-116h123z" />
    <glyph glyph-name="g" unicode="g" 
d="M98 -90c0 -31 36 -71 150 -71c117 0 185 44 185 97c0 45 -49 47 -123 49c-94 3 -116 3 -163 13c-31 -37 -49 -58 -49 -88zM152 342c0 -79 26 -168 104 -168c68 0 73 74 73 96c0 28 -16 162 -102 162c-36 0 -75 -23 -75 -90zM470 388h-83c10 -23 19 -42 19 -92
c0 -108 -103 -147 -159 -147c-12 0 -48 5 -54 5c-20 -2 -60 -43 -60 -63c0 -23 48 -26 78 -27l129 -6c107 -5 121 -79 121 -107c0 -113 -166 -169 -256 -169c-102 0 -177 44 -177 97c0 45 47 86 98 122c-27 13 -53 25 -53 53c0 17 0 30 89 109c-59 26 -93 72 -93 130
c0 119 96 167 172 167c35 0 57 -8 97 -23c21 -8 39 -10 55 -10h77v-39z" />
    <glyph glyph-name="h" unicode="h" 
d="M487 15v-15h-212v15c49 5 68 10 68 87v198c0 67 -22 106 -77 106c-29 0 -68 -15 -109 -63v-241c0 -77 19 -82 68 -87v-15h-216v15c54 7 64 14 64 87v471c0 30 0 51 -44 51c-6 0 -16 0 -19 -1v16c45 13 94 27 142 44l5 -3v-302h2c35 50 84 82 144 82
c123 0 124 -119 124 -159v-199c0 -73 10 -78 60 -87z" />
    <glyph glyph-name="i" unicode="i" horiz-adv-x="278" 
d="M16 0v15c62 3 79 9 79 87v232c0 59 -19 60 -35 60c-14 0 -27 -2 -40 -4v15c52 17 103 36 155 55l4 -3v-355c0 -66 5 -83 74 -87v-15h-237zM78 632c0 19 15 51 50 51c30 0 52 -23 52 -51c0 -29 -22 -51 -52 -51c-36 0 -50 32 -50 51z" />
    <glyph glyph-name="j" unicode="j" horiz-adv-x="278" 
d="M109 -45v379c0 59 -19 60 -35 60c-14 0 -27 -2 -42 -4v16c52 16 104 34 156 54l5 -3v-457c0 -117 -41 -218 -170 -218c-47 0 -93 19 -93 56c0 23 21 38 40 38c43 0 53 -60 89 -60c50 0 50 57 50 139zM92 632c0 19 15 51 50 51c30 0 52 -23 52 -51c0 -29 -22 -51 -52 -51
c-36 0 -50 32 -50 51z" />
    <glyph glyph-name="k" unicode="k" 
d="M7 0v15c67 11 75 13 75 67v482c0 45 -6 61 -45 61c-13 0 -22 -1 -30 -2v16c49 13 102 27 155 44l4 -2v-416l2 -2c36 31 95 86 135 120c15 14 23 25 23 34c0 11 -8 19 -50 19v14h204v-15c-53 0 -81 0 -216 -126l-29 -27l153 -194c51 -64 90 -71 117 -73v-15h-218v15h19
c8 0 21 3 21 16c0 7 -9 16 -21 33l-138 184h-2v-181c0 -41 22 -49 55 -51l20 -1v-15h-234z" />
    <glyph glyph-name="l" unicode="l" horiz-adv-x="278" 
d="M21 0v15c59 4 77 17 77 72v477c0 45 -6 61 -45 61c-13 0 -22 -1 -34 -2v16c53 13 106 27 159 44l4 -2v-597c0 -58 17 -66 75 -69v-15h-236z" />
    <glyph glyph-name="m" unicode="m" horiz-adv-x="778" 
d="M86 85v253c0 63 -19 64 -35 64c-14 0 -24 -2 -32 -4v17c47 13 94 28 140 45l7 -2v-75c59 45 100 77 154 77c65 0 96 -42 107 -84c21 24 82 84 161 84c104 0 118 -104 118 -178v-206c0 -22 -1 -52 43 -59l26 -2v-15h-219v15c50 6 66 8 66 72v211c0 51 -1 110 -73 110
c-55 0 -89 -27 -111 -61v-252c0 -76 31 -79 72 -80v-15h-224v15c45 3 68 6 68 71v217c0 66 -17 105 -69 105c-69 0 -115 -54 -115 -59v-282c0 -49 33 -51 68 -52v-15h-222v15c40 1 70 3 70 70z" />
    <glyph glyph-name="n" unicode="n" 
d="M80 90v248c0 63 -19 64 -35 64c-14 0 -25 -2 -29 -4v17c45 13 92 28 138 45l7 -2v-79c49 46 87 81 146 81c46 0 117 -27 117 -150v-229c0 -47 12 -62 61 -66v-15h-208v15c37 3 63 8 63 84v209c0 61 -18 97 -77 97c-30 0 -61 -20 -99 -57v-281c0 -33 14 -49 66 -52v-15
h-212v15c47 3 62 16 62 75z" />
    <glyph glyph-name="o" unicode="o" 
d="M245 460c131 0 225 -87 225 -232c0 -99 -70 -238 -222 -238c-129 0 -219 103 -219 238c0 123 82 232 216 232zM262 18c51 0 118 38 118 181c0 124 -51 233 -143 233c-63 0 -118 -52 -118 -156c0 -74 23 -258 143 -258z" />
    <glyph glyph-name="p" unicode="p" 
d="M75 -131v468c0 40 -3 57 -38 57c-9 0 -19 0 -28 -1v16c48 15 96 32 144 51l6 -2v-73l2 -2c21 28 67 77 144 77c89 0 165 -82 165 -215c0 -115 -71 -255 -210 -255c-40 0 -68 11 -101 43v-157c0 -64 16 -75 88 -75v-18h-242v17c66 5 70 26 70 69zM159 334v-246
c0 -23 47 -66 102 -66c33 0 123 19 123 193c0 23 -5 185 -127 185c-36 0 -92 -28 -98 -66z" />
    <glyph glyph-name="q" unicode="q" 
d="M360 425l54 32l7 3l4 -4v-597c0 -48 18 -52 63 -62v-14h-236v17c75 3 89 26 89 76v186h-5c-17 -30 -87 -72 -148 -72c-89 0 -164 71 -164 222c0 138 98 248 223 248c51 0 74 -13 113 -35zM341 127v206c0 28 -1 99 -96 99c-81 0 -135 -73 -135 -194
c0 -92 39 -187 128 -187c15 0 32 2 50 9c52 19 52 35 53 67z" />
    <glyph glyph-name="r" unicode="r" horiz-adv-x="333" 
d="M76 84v250c0 59 -19 60 -35 60c-14 0 -25 -2 -34 -4v16c49 16 99 34 148 54l5 -2v-89h2c47 71 81 91 119 91c34 0 54 -21 54 -54c0 -25 -14 -44 -38 -44c-35 0 -45 35 -69 35s-68 -50 -68 -82v-225c0 -69 34 -73 85 -75v-15h-240v15c55 10 71 13 71 69z" />
    <glyph glyph-name="s" unicode="s" horiz-adv-x="389" 
d="M315 314h-15c-22 102 -67 123 -111 123c-55 0 -76 -39 -76 -65c0 -20 6 -49 43 -71l108 -64c49 -30 84 -58 84 -118c0 -87 -81 -129 -145 -129c-45 0 -88 19 -116 18c-12 0 -16 -3 -22 -12h-13v156h16c12 -53 31 -140 129 -140c34 0 81 16 81 73c0 32 -20 56 -52 74
l-58 33c-62 35 -117 72 -117 146c0 56 43 122 140 122c44 0 75 -20 92 -20c9 0 14 7 17 11h11z" />
    <glyph glyph-name="t" unicode="t" horiz-adv-x="278" 
d="M255 450v-32h-101v-286c0 -31 0 -90 51 -90c32 0 50 22 61 35l13 -11c-24 -43 -71 -76 -117 -76c-51 0 -92 27 -92 127v301h-53c-2 1 -4 4 -4 7c0 12 22 18 44 40c38 39 53 61 90 114c7 0 7 -5 7 -13v-116h101z" />
    <glyph glyph-name="u" unicode="u" 
d="M479 50v-14c-54 -14 -92 -28 -139 -45l-2 2v83l-43 -43c-39 -39 -87 -43 -105 -43c-41 0 -119 24 -119 130v252c0 60 -32 62 -62 64v14h146v-326c0 -14 9 -76 75 -76c30 0 60 14 87 36c9 8 16 18 16 51v235c0 40 -4 61 -74 63v17h158v-343c0 -36 2 -59 62 -57z" />
    <glyph glyph-name="v" unicode="v" 
d="M477 450v-15c-34 -3 -41 -19 -65 -78l-128 -321c-11 -27 -20 -50 -27 -50c-9 0 -11 4 -27 47c-24 62 -120 294 -156 365c-15 30 -35 36 -55 37v15h196v-15c-24 -2 -46 -5 -46 -30c0 -12 6 -27 9 -35l102 -256c34 96 105 252 105 288c0 23 -22 32 -47 33v15h139z" />
    <glyph glyph-name="w" unicode="w" horiz-adv-x="722" 
d="M571 450h123v-15c-21 -7 -26 -17 -41 -54l-138 -346c-16 -39 -20 -49 -28 -49s-10 7 -24 43l-91 236l-112 -240c-14 -28 -19 -39 -25 -39c-7 0 -12 10 -26 44l-135 342c-20 48 -28 61 -53 63v15h180v-15c-23 -2 -46 -6 -46 -34c0 -35 59 -162 105 -290l91 199
c-37 113 -48 120 -89 125v15h203v-15c-33 -5 -58 -8 -58 -37c0 -18 6 -29 21 -68l80 -214l90 222c11 25 17 52 17 64c0 24 -20 28 -44 33v15z" />
    <glyph glyph-name="x" unicode="x" 
d="M302 73l-81 124l-79 -123c-6 -9 -20 -30 -20 -41c2 -18 23 -18 40 -18v-15h-145v15c27 3 41 5 73 51l114 165l-94 144c-41 61 -53 61 -86 60v15h207v-15c-18 0 -43 -2 -43 -23c0 -18 41 -79 60 -108c61 88 67 97 67 108c0 21 -23 22 -40 23v15h158v-15
c-43 -1 -73 -31 -81 -44l-83 -120l128 -196c38 -58 65 -59 82 -60v-15h-201v15c31 1 40 5 40 26c0 15 -12 27 -16 32z" />
    <glyph glyph-name="y" unicode="y" 
d="M475 450v-15c-13 -2 -33 -4 -48 -45l-154 -408c-51 -134 -95 -200 -170 -200c-50 0 -73 32 -73 58c0 6 2 44 48 44c27 0 58 -18 71 -18c52 0 92 138 92 154c0 15 -48 107 -62 138l-114 246c-12 25 -38 30 -51 32v14h206v-15c-23 -1 -58 -2 -58 -29c0 -13 7 -29 10 -36
l115 -253l78 222c10 27 23 59 23 68c0 19 -16 29 -48 28v15h135z" />
    <glyph glyph-name="z" unicode="z" horiz-adv-x="444" 
d="M418 135l-14 -135h-377v15l266 405h-138c-73 0 -77 -34 -84 -88h-18l3 118h347v-15l-269 -405h138c106 0 112 31 128 109z" />
    <glyph glyph-name="braceleft" unicode="{" horiz-adv-x="480" 
d="M185 -41v177c0 64 -16 95 -85 114c69 18 85 49 85 113v178c0 119 62 139 165 139v-11c-71 -16 -91 -54 -91 -123v-168c0 -71 -13 -110 -91 -128v-2c78 -17 91 -56 91 -127v-168c0 -69 20 -107 91 -123v-11c-103 0 -165 20 -165 140z" />
    <glyph glyph-name="bar" unicode="|" horiz-adv-x="200" 
d="M67 -14v690h66v-690h-66z" />
    <glyph glyph-name="braceright" unicode="}" horiz-adv-x="480" 
d="M295 540v-177c0 -64 16 -95 85 -113c-69 -19 -85 -50 -85 -114v-178c0 -119 -62 -139 -165 -139v11c71 16 91 54 91 123v168c0 71 13 110 91 128v2c-78 17 -91 56 -91 127v168c0 69 -20 107 -91 123v11c103 0 165 -20 165 -140z" />
    <glyph glyph-name="asciitilde" unicode="~" horiz-adv-x="541" 
d="M466 323l36 -50c-30 -42 -63 -86 -125 -86c-37 0 -69 15 -102 33c-32 18 -69 35 -115 35c-44 0 -68 -37 -84 -72l-36 50c22 42 58 86 125 86c34 0 73 -15 111 -32c37 -16 75 -36 102 -36c40 0 65 37 88 72z" />
    <glyph glyph-name="exclamdown" unicode="&#xa1;" horiz-adv-x="333" 
d="M144 282h13l9 -108c6 -70 37 -263 37 -308c0 -39 -11 -84 -52 -84c-49 0 -60 51 -52 117zM150 467c24 0 55 -15 55 -51c0 -29 -24 -54 -55 -54c-29 0 -53 23 -53 54c0 38 32 51 53 51z" />
    <glyph glyph-name="cent" unicode="&#xa2;" 
d="M403 579l-47 -135c43 -14 75 -50 75 -84c0 -26 -18 -45 -41 -45c-29 0 -44 16 -60 52l-101 -291c19 -7 34 -12 57 -12c62 0 103 30 149 100l13 -8c-47 -104 -106 -165 -193 -165c-22 0 -36 4 -54 9l-49 -138h-34l51 150c-107 54 -116 171 -116 203c0 162 116 245 220 245
c16 0 32 -2 51 -5l44 124h35zM198 98l115 323c-13 5 -26 9 -48 9c-52 0 -135 -37 -135 -170c0 -67 21 -124 68 -162z" />
    <glyph glyph-name="sterling" unicode="&#xa3;" 
d="M344 373v-45h-122l1 -27c2 -59 2 -59 -24 -190c62 -28 118 -35 150 -35c92 0 114 65 135 65c3 0 6 0 6 -5c0 -9 -15 -59 -53 -96c-30 -29 -69 -47 -117 -47c-51 0 -98 30 -142 61c-27 -32 -53 -62 -99 -62c-32 0 -67 18 -67 61c0 49 38 77 93 77c15 0 29 -2 44 -5
c1 3 3 13 3 17c0 34 -9 96 -21 186h-108v45h107c-4 21 -7 35 -7 67c0 163 90 236 195 236c84 0 130 -47 130 -93c0 -34 -24 -53 -49 -53c-40 0 -40 34 -40 67c0 52 -44 52 -56 52c-87 0 -95 -101 -95 -136c0 -51 4 -83 11 -140h125zM78 20c48 0 64 47 64 57
c0 8 -32 17 -57 17c-28 0 -47 -12 -47 -38c0 -21 18 -36 40 -36z" />
    <glyph glyph-name="fraction" unicode="&#x2044;" horiz-adv-x="167" 
d="M331 676l-450 -690h-49l453 690h46z" />
    <glyph glyph-name="yen" unicode="&#xa5;" 
d="M355 19v-19h-244v19c71 2 79 25 79 101v62h-174v40h174v76l-7 14h-167v40h144l-95 173c-46 83 -67 117 -118 118v19h243v-19c-47 1 -65 -9 -65 -30c0 -12 5 -29 13 -44l118 -221l112 220c8 15 14 28 14 44c0 24 -30 34 -65 31v19h195v-19c-48 -9 -84 -40 -118 -107
l-92 -184h146v-40h-166l-7 -14v-76h173v-40h-173v-73c0 -75 23 -89 80 -90z" />
    <glyph glyph-name="florin" unicode="&#x192;" 
d="M432 407l-10 -31h-120c-17 -120 -25 -209 -40 -288c-33 -175 -80 -277 -176 -277c-50 0 -79 32 -79 70c0 36 33 44 46 44c22 0 36 -14 36 -37c0 -19 -15 -30 -15 -40c0 -7 8 -13 19 -13c59 0 77 91 84 174l15 172c5 60 12 121 23 180l2 15h-111l10 31h107
c7 50 38 269 184 269c52 0 83 -37 83 -66c0 -30 -23 -47 -47 -47c-25 0 -37 22 -37 34c0 16 13 28 13 37c0 11 -11 13 -22 13c-65 0 -79 -108 -91 -240h126z" />
    <glyph glyph-name="section" unicode="&#xa7;" 
d="M70 282c0 74 52 132 135 122l2 2c-55 46 -97 81 -97 148c0 84 69 122 142 122c64 0 125 -39 125 -97c0 -30 -16 -54 -51 -54c-38 0 -47 29 -47 43c0 32 34 47 34 54c0 18 -22 33 -68 33c-60 0 -79 -47 -79 -70c0 -20 9 -51 34 -72l137 -113c48 -40 89 -94 89 -153
c0 -67 -44 -130 -130 -122l-2 -2c66 -56 92 -89 92 -145c0 -63 -45 -126 -142 -126c-79 0 -140 43 -140 100c0 36 28 54 54 54c33 0 48 -24 48 -41c0 -34 -34 -44 -34 -57c0 -11 19 -35 74 -35c49 0 84 29 84 79c0 42 -16 58 -162 170c-69 53 -98 111 -98 160zM192 383
c-30 0 -69 -18 -69 -66c0 -41 25 -67 46 -88c38 -38 87 -83 134 -83c37 0 71 26 71 70c0 59 -127 167 -182 167z" />
    <glyph glyph-name="currency" unicode="&#xa4;" 
d="M251 481c-84 0 -148 -70 -148 -150c0 -82 64 -152 148 -152s146 70 146 152c0 80 -62 150 -146 150zM-22 108l98 96c-25 33 -41 77 -41 127s18 96 41 125l-98 98l50 48l96 -96c33 23 77 39 127 39s96 -16 125 -39l98 96l48 -48l-96 -98c23 -31 39 -75 39 -125
s-16 -94 -39 -127l96 -96l-48 -50l-98 98c-29 -23 -75 -41 -125 -41s-96 18 -127 41l-96 -98z" />
    <glyph glyph-name="quotesingle" unicode="'" horiz-adv-x="180" 
d="M101 431h-21c-10 55 -32 176 -32 204c0 27 23 41 43 41c19 0 42 -14 42 -41c0 -28 -22 -149 -32 -204z" />
    <glyph glyph-name="quotedblleft" unicode="&#x201c;" horiz-adv-x="444" 
d="M155 676l9 -19c-66 -42 -82 -87 -82 -106c0 -9 7 -14 14 -14c2 0 5 1 9 2c3 1 8 2 15 2c26 0 62 -10 62 -50c0 -43 -33 -58 -58 -58c-23 0 -81 13 -81 96c0 71 82 137 112 147zM387 676l9 -19c-66 -42 -82 -87 -82 -106c0 -9 7 -14 14 -14c2 0 5 1 9 2c3 1 8 2 15 2
c26 0 62 -10 62 -50c0 -43 -33 -58 -58 -58c-23 0 -81 13 -81 96c0 71 82 137 112 147z" />
    <glyph glyph-name="guillemotleft" unicode="&#xab;" 
d="M42 227l31 27c33 28 100 87 164 150c12 12 12 12 16 12c8 0 10 -4 10 -11c0 -14 -106 -151 -128 -180c22 -30 61 -74 83 -104c18 -24 46 -64 46 -77c0 -7 -5 -11 -11 -11c-8 0 -63 63 -127 119c-10 9 -84 73 -84 75zM234 227l31 27c33 28 100 87 164 150
c12 12 12 12 16 12c8 0 10 -4 10 -11c0 -14 -106 -151 -128 -180c22 -30 61 -74 83 -104c18 -24 46 -64 46 -77c0 -7 -5 -11 -11 -11c-8 0 -63 63 -127 119c-10 9 -84 73 -84 75z" />
    <glyph glyph-name="guilsinglleft" unicode="&#x2039;" horiz-adv-x="333" 
d="M63 227l31 27c33 28 100 87 164 150c12 12 12 12 16 12c8 0 10 -4 10 -11c0 -14 -106 -151 -128 -180c22 -30 61 -74 83 -104c18 -24 46 -64 46 -77c0 -7 -5 -11 -11 -11c-8 0 -63 63 -127 119c-10 9 -84 73 -84 75z" />
    <glyph glyph-name="guilsinglright" unicode="&#x203a;" horiz-adv-x="333" 
d="M270 222l-31 -27c-33 -28 -100 -87 -164 -150c-12 -12 -12 -12 -16 -12c-8 0 -10 4 -10 11c0 14 106 151 128 180c-22 30 -61 74 -83 104c-18 24 -46 64 -46 77c0 7 5 11 11 11c8 0 63 -63 127 -119c10 -9 84 -73 84 -75z" />
    <glyph glyph-name="fi" unicode="&#xfb01;" horiz-adv-x="556" 
d="M31 418v32h69c5 148 78 233 218 233c65 0 126 -20 126 -72c0 -20 -16 -37 -35 -37c-53 0 -49 84 -123 84c-47 0 -81 -35 -93 -64c-12 -30 -12 -77 -11 -144h157c37 0 80 4 113 10l4 -3c-1 -32 -2 -73 -2 -98v-262c0 -68 16 -78 67 -82v-15h-220v15c67 4 69 22 69 82v264
c0 38 -3 49 -36 54c-13 1 -130 3 -151 3v-330c0 -40 2 -70 69 -73v-15h-220v15c49 1 67 9 67 79v324h-68z" />
    <glyph glyph-name="fl" unicode="&#xfb02;" horiz-adv-x="556" 
d="M32 418v32h71c1 214 126 233 168 233c63 0 83 -25 109 -25c14 0 60 24 72 25l5 -2v-600c0 -46 6 -63 64 -66v-15h-215v15c34 3 67 7 67 69v334h-188v-339c0 -55 29 -60 71 -64v-15h-224v15c50 4 69 5 69 90v313h-69zM373 450v141c-3 -3 -6 -7 -15 -7
c-62 0 -49 72 -107 72c-70 0 -68 -116 -66 -206h188z" />
    <glyph glyph-name="endash" unicode="&#x2013;" 
d="M0 250h500v-49h-500v49z" />
    <glyph glyph-name="dagger" unicode="&#x2020;" 
d="M262 -149h-21l-1 123c-2 123 -25 240 -42 279c42 43 42 139 42 185c-86 -6 -94 -34 -140 -34c-18 0 -41 9 -41 44c0 31 23 43 41 43c46 0 54 -33 140 -35c1 121 -36 125 -36 173c0 25 21 47 47 47c24 0 46 -22 46 -47c0 -48 -37 -52 -36 -173c86 2 94 35 140 35
c18 0 41 -12 41 -43c0 -35 -23 -44 -41 -44c-46 0 -54 28 -140 34c0 -46 0 -142 42 -185c-19 -39 -40 -156 -40 -279z" />
    <glyph glyph-name="daggerdbl" unicode="&#x2021;" 
d="M442 448c0 -35 -23 -44 -41 -44c-46 0 -54 28 -140 34c0 -36 -5 -126 40 -178c-45 -48 -41 -134 -41 -175c86 6 94 34 140 34c18 0 41 -9 41 -44c0 -31 -23 -43 -41 -43c-46 0 -54 33 -140 35c-1 -121 36 -125 36 -173c0 -25 -22 -47 -46 -47c-26 0 -47 22 -47 47
c0 48 37 52 36 173c-86 -2 -94 -35 -140 -35c-18 0 -41 12 -41 43c0 35 23 44 41 44c46 0 54 -28 140 -34c0 41 3 137 -40 175c43 54 41 142 41 178c-86 -6 -94 -34 -140 -34c-18 0 -41 9 -41 44c0 31 23 43 41 43c46 0 54 -33 140 -35c1 121 -36 125 -36 173
c0 25 21 47 47 47c24 0 46 -22 46 -47c0 -48 -37 -52 -36 -173c86 2 94 35 140 35c18 0 41 -12 41 -43z" />
    <glyph glyph-name="periodcentered" unicode="&#xb7;" horiz-adv-x="250" 
d="M125 199c-21 0 -55 16 -55 54c0 32 25 57 55 57s56 -26 56 -57c0 -37 -35 -54 -56 -54z" />
    <glyph glyph-name="paragraph" unicode="&#xb6;" horiz-adv-x="453" 
d="M238 640v-794h-154v22c84 4 88 26 88 101v304c-133 0 -194 75 -194 201c0 132 59 188 209 188h263v-19c-76 -6 -88 -19 -88 -90v-595c0 -66 10 -85 88 -90v-22h-154v794h-58zM172 295v345c-80 -5 -118 -34 -118 -167c0 -129 46 -173 118 -178z" />
    <glyph glyph-name="bullet" unicode="&#x2022;" horiz-adv-x="350" 
d="M310 331c0 -74 -60 -135 -135 -135s-135 60 -135 135c-1 75 59 135 135 135c75 0 135 -60 135 -135z" />
    <glyph glyph-name="quotesinglbase" unicode="&#x201a;" horiz-adv-x="333" 
d="M106 -141l-9 19c66 42 82 87 82 106c0 9 -7 14 -14 14c-2 0 -5 -1 -9 -2c-3 -1 -8 -2 -15 -2c-26 0 -62 10 -62 50c0 43 33 58 58 58c23 0 81 -13 81 -96c0 -71 -82 -137 -112 -147z" />
    <glyph glyph-name="quotedblbase" unicode="&#x201e;" horiz-adv-x="444" 
d="M72 -141l-9 19c66 42 82 87 82 106c0 9 -7 14 -14 14c-2 0 -5 -1 -9 -2c-3 -1 -8 -2 -15 -2c-26 0 -62 10 -62 50c0 43 33 58 58 58c23 0 81 -13 81 -96c0 -71 -82 -137 -112 -147zM304 -141l-9 19c66 42 82 87 82 106c0 9 -7 14 -14 14c-2 0 -5 -1 -9 -2
c-3 -1 -8 -2 -15 -2c-26 0 -62 10 -62 50c0 43 33 58 58 58c23 0 81 -13 81 -96c0 -71 -82 -137 -112 -147z" />
    <glyph glyph-name="quotedblright" unicode="&#x201d;" horiz-adv-x="444" 
d="M57 433l-9 19c66 42 82 87 82 106c0 9 -7 14 -14 14c-2 0 -5 -1 -9 -2c-3 -1 -8 -2 -15 -2c-26 0 -62 10 -62 50c0 43 33 58 58 58c23 0 81 -13 81 -96c0 -71 -82 -137 -112 -147zM289 433l-9 19c66 42 82 87 82 106c0 9 -7 14 -14 14c-2 0 -5 -1 -9 -2
c-3 -1 -8 -2 -15 -2c-26 0 -62 10 -62 50c0 43 33 58 58 58c23 0 81 -13 81 -96c0 -71 -82 -137 -112 -147z" />
    <glyph glyph-name="guillemotright" unicode="&#xbb;" 
d="M458 222l-31 -27c-33 -28 -100 -87 -164 -150c-12 -12 -12 -12 -16 -12c-8 0 -10 4 -10 11c0 14 106 151 128 180c-22 30 -61 74 -83 104c-18 24 -46 64 -46 77c0 7 5 11 11 11c8 0 63 -63 127 -119c10 -9 84 -73 84 -75zM266 222l-31 -27c-33 -28 -100 -87 -164 -150
c-12 -12 -12 -12 -16 -12c-8 0 -10 4 -10 11c0 14 106 151 128 180c-22 30 -61 74 -83 104c-18 24 -46 64 -46 77c0 7 5 11 11 11c8 0 63 -63 127 -119c10 -9 84 -73 84 -75z" />
    <glyph glyph-name="ellipsis" unicode="&#x2026;" horiz-adv-x="1000" 
d="M166 -11c-21 0 -55 16 -55 54c0 32 25 57 55 57s56 -26 56 -57c0 -37 -35 -54 -56 -54zM499 -11c-21 0 -55 16 -55 54c0 32 25 57 55 57s56 -26 56 -57c0 -37 -35 -54 -56 -54zM832 -11c-21 0 -55 16 -55 54c0 32 25 57 55 57s56 -26 56 -57c0 -37 -35 -54 -56 -54z" />
    <glyph glyph-name="perthousand" unicode="&#x2030;" horiz-adv-x="1000" 
d="M567 706l-430 -724h-47l387 647l-2 2c-20 -23 -45 -48 -124 -48c-14 0 -21 0 -64 14c2 -11 4 -23 4 -40c0 -98 -64 -231 -166 -231c-22 0 -118 12 -118 148c0 85 81 202 192 202c65 0 60 -67 162 -67c63 0 86 23 162 97h44zM78 428c0 -32 11 -75 59 -75
c76 0 130 120 130 201c0 47 -3 52 -25 61c-23 10 -29 19 -44 34c-91 -29 -120 -181 -120 -221zM535 330c64 0 97 -48 97 -108c0 -145 -86 -241 -163 -241c-38 0 -122 28 -122 142c0 104 96 207 188 207zM547 302c-81 0 -128 -166 -128 -220c0 -38 19 -74 54 -74
c92 0 136 140 136 201c0 63 -28 93 -62 93zM897 330c64 0 97 -48 97 -108c0 -145 -86 -241 -163 -241c-38 0 -122 28 -122 142c0 104 96 207 188 207zM909 302c-81 0 -128 -166 -128 -220c0 -38 19 -74 54 -74c92 0 136 140 136 201c0 63 -28 93 -62 93z" />
    <glyph glyph-name="questiondown" unicode="&#xbf;" horiz-adv-x="444" 
d="M200 294h17c0 -59 -24 -128 -30 -142l-28 -64c-18 -40 -37 -109 -37 -149c0 -60 33 -127 110 -127c42 0 93 28 93 61c0 27 -38 39 -38 75c0 17 11 41 39 41c40 0 50 -29 50 -63c0 -101 -94 -144 -163 -144c-57 0 -123 29 -147 58c-27 33 -36 56 -36 108
c0 51 45 121 75 156c55 64 81 104 95 190zM207 466c24 0 55 -15 55 -51c0 -29 -24 -54 -55 -54c-29 0 -53 23 -53 54c0 38 32 51 53 51z" />
    <glyph glyph-name="grave" unicode="`" horiz-adv-x="333" 
d="M242 507h-40l-154 97c-12 8 -29 22 -29 43c0 2 1 31 32 31c16 0 19 0 44 -23z" />
    <glyph glyph-name="acute" unicode="&#xb4;" horiz-adv-x="333" 
d="M133 507h-40l147 148c23 23 30 23 44 23c32 0 33 -28 33 -32c0 -23 -20 -36 -30 -42z" />
    <glyph glyph-name="circumflex" unicode="&#x2c6;" horiz-adv-x="333" 
d="M322 507h-34l-122 103l-121 -103h-34l124 167h62z" />
    <glyph glyph-name="tilde" unicode="&#x2dc;" horiz-adv-x="333" 
d="M302 638h29c-9 -34 -27 -106 -105 -106c-31 0 -52 10 -81 24l-23 11c-12 6 -25 11 -37 11c-38 0 -49 -29 -55 -46h-29c8 44 38 101 105 101c21 0 43 -6 66 -18l24 -12c12 -6 33 -15 48 -15c27 0 41 10 58 50z" />
    <glyph glyph-name="macron" unicode="&#xaf;" horiz-adv-x="333" 
d="M11 601h311v-54h-311v54z" />
    <glyph glyph-name="breve" unicode="&#x2d8;" horiz-adv-x="333" 
d="M278 664h29c-3 -31 -15 -157 -143 -157c-72 0 -140 48 -138 157h29c10 -61 47 -97 111 -97c76 0 93 47 112 97z" />
    <glyph glyph-name="dotaccent" unicode="&#x2d9;" horiz-adv-x="333" 
d="M118 573c0 19 15 50 48 50c27 0 50 -23 50 -50c0 -28 -23 -50 -50 -50c-34 0 -48 30 -48 50z" />
    <glyph glyph-name="dieresis" unicode="&#xa8;" horiz-adv-x="333" 
d="M18 573c0 19 15 50 48 50c27 0 50 -23 50 -50c0 -28 -23 -50 -50 -50c-34 0 -48 30 -48 50zM217 573c0 19 15 50 48 50c27 0 50 -23 50 -50c0 -28 -23 -50 -50 -50c-34 0 -48 30 -48 50z" />
    <glyph glyph-name="ring" unicode="&#x2da;" horiz-adv-x="333" 
d="M67 611c0 54 43 100 99 100c55 0 100 -45 100 -100s-45 -99 -100 -99c-57 0 -99 45 -99 99zM166 677c-45 0 -65 -41 -65 -65c0 -25 19 -66 64 -66c38 0 67 29 67 65s-29 66 -66 66z" />
    <glyph glyph-name="cedilla" unicode="&#xb8;" horiz-adv-x="333" 
d="M98 -99l41 99h35l-25 -65c9 2 16 3 28 3c52 0 84 -25 84 -70c0 -41 -36 -83 -121 -83c-49 0 -73 10 -88 16l14 31c17 -7 54 -12 62 -12c32 0 58 11 58 45c0 23 -15 35 -45 35c-11 0 -26 0 -36 -4z" />
    <glyph glyph-name="hungarumlaut" unicode="&#x2dd;" horiz-adv-x="333" 
d="M193 507h-40l147 148c23 23 30 23 44 23c32 0 33 -28 33 -32c0 -23 -20 -36 -30 -42zM37 507h-40l147 148c23 23 30 23 44 23c32 0 33 -28 33 -32c0 -23 -20 -36 -30 -42z" />
    <glyph glyph-name="ogonek" unicode="&#x2db;" horiz-adv-x="333" 
d="M229 -73l20 -16c-25 -39 -65 -76 -110 -76c-43 0 -75 28 -75 81c0 32 31 68 54 84h46c-18 -14 -44 -39 -44 -69c0 -25 18 -40 36 -40c30 0 51 17 73 36z" />
    <glyph glyph-name="caron" unicode="&#x2c7;" horiz-adv-x="333" 
d="M322 674l-125 -167h-62l-124 167h34l121 -103l122 103h34z" />
    <glyph glyph-name="emdash" unicode="&#x2014;" horiz-adv-x="1000" 
d="M0 250h1000v-49h-1000v49z" />
    <glyph glyph-name="AE" unicode="&#xc6;" horiz-adv-x="889" 
d="M816 521h-23c-11 98 -52 105 -182 105h-87c-11 0 -27 -1 -27 -30v-230h111c111 0 126 26 132 97h21v-234h-21c-6 53 -11 100 -98 100h-145v-238c0 -49 3 -53 69 -53h76c105 0 140 20 197 130h24l-44 -168h-510v19l17 2c56 7 72 16 72 87v152h-176
c-47 -89 -92 -177 -92 -209c0 -28 56 -30 69 -32v-19h-199v19c35 6 53 9 88 78l245 484c4 8 9 18 9 26c0 24 -29 35 -90 35v20h564v-141zM239 299h159v313h-3z" />
    <glyph glyph-name="ordfeminine" unicode="&#xaa;" horiz-adv-x="276" 
d="M158 474v77c-68 -22 -91 -44 -91 -63c0 -29 16 -47 40 -47c14 0 34 8 40 11c10 9 10 16 11 22zM270 442v-18c-27 -29 -47 -30 -58 -30c-12 0 -39 0 -46 44c-20 -20 -55 -44 -90 -44s-72 22 -72 67c0 60 59 81 153 115v30c0 25 -12 42 -35 42c-21 0 -46 -11 -46 -22
c0 -9 3 -18 3 -22c0 -13 -12 -26 -32 -26s-31 17 -31 31c0 32 34 67 109 67c97 0 104 -63 104 -96v-115c0 -23 0 -35 13 -35c12 0 21 6 28 12z" />
    <glyph glyph-name="Lslash" unicode="&#x141;" horiz-adv-x="611" 
d="M598 174l-48 -174h-538v19c64 4 87 13 87 90v170l-87 -53v49l87 54v224c0 79 -24 85 -87 90v19h282v-19c-68 -4 -93 -11 -93 -90v-175l155 95v-49l-155 -94v-250c0 -40 18 -41 101 -41c150 0 214 4 271 135h25z" />
    <glyph glyph-name="Oslash" unicode="&#xd8;" horiz-adv-x="722" 
d="M527 540l-308 -452c38 -46 90 -66 142 -66c111 0 213 89 213 309c0 93 -18 160 -47 209zM194 123l308 452c-40 46 -92 65 -141 65c-102 0 -213 -81 -213 -309c0 -91 17 -159 46 -208zM658 734l-88 -130c70 -58 118 -149 118 -274c0 -213 -146 -344 -327 -344
c-65 0 -126 17 -177 50l-79 -116h-49l95 139c-72 59 -117 152 -117 271c0 230 163 346 327 346c62 0 123 -16 176 -49l72 107h49z" />
    <glyph glyph-name="OE" unicode="&#x152;" horiz-adv-x="889" 
d="M838 521h-23c-11 98 -56 105 -168 105h-51c-61 0 -65 -5 -65 -24v-236c211 0 217 0 231 97h22v-234h-22c-5 49 -15 79 -47 89c-25 10 -32 11 -184 11v-245c0 -44 20 -46 56 -46l124 2c48 2 93 18 150 128h24l-44 -168h-350c-30 0 -61 -1 -91 -3c-30 -1 -59 -3 -89 -3
c-149 0 -281 112 -281 320c0 251 139 354 321 354c7 0 27 -1 56 -3c29 -1 66 -3 105 -3h326v-141zM431 131v396c0 50 -11 105 -99 105c-138 0 -190 -142 -190 -302c0 -169 48 -299 191 -299c84 0 98 47 98 100z" />
    <glyph glyph-name="ordmasculine" unicode="&#xba;" horiz-adv-x="310" 
d="M157 676c85 0 147 -52 147 -134c0 -65 -46 -148 -155 -148c-84 0 -143 62 -143 138c0 79 54 144 151 144zM152 643c-41 0 -73 -26 -73 -70c0 -42 11 -146 79 -146c33 0 73 17 73 80c0 76 -29 136 -79 136z" />
    <glyph glyph-name="ae" unicode="&#xe6;" horiz-adv-x="667" 
d="M620 154l12 -5c-61 -146 -155 -159 -193 -159c-86 0 -116 47 -133 73c-47 -39 -88 -73 -153 -73c-83 0 -115 64 -115 106c0 90 74 120 235 185c4 103 6 155 -60 155c-38 0 -72 -16 -68 -56l1 -11c2 -19 6 -65 -44 -65c-17 0 -42 11 -42 49c0 62 72 107 158 107
c66 0 95 -24 119 -45c41 33 71 45 122 45c142 0 153 -133 157 -183h-262c0 -99 0 -220 128 -220c55 0 105 44 138 97zM125 119c0 -26 17 -81 72 -81c39 0 96 36 96 50c0 7 -18 42 -19 113l-1 52c-123 -43 -148 -71 -148 -134zM355 307h166c0 40 -5 124 -77 124
c-83 0 -87 -82 -89 -124z" />
    <glyph glyph-name="dotlessi" unicode="&#x131;" horiz-adv-x="278" 
d="M16 0v15c62 3 79 9 79 87v232c0 59 -19 60 -35 60c-14 0 -27 -2 -40 -4v15l155 55l4 -3v-355c0 -66 5 -83 74 -87v-15h-237z" />
    <glyph glyph-name="lslash" unicode="&#x142;" horiz-adv-x="278" 
d="M21 0v15c59 4 77 17 77 72v229l-78 -52v44l78 53v203c0 45 -6 61 -45 61c-13 0 -22 -1 -34 -2v16c53 13 106 27 159 44l4 -2v-262l77 53v-44l-77 -52v-292c0 -58 17 -66 75 -69v-15h-236z" />
    <glyph glyph-name="oslash" unicode="&#xf8;" 
d="M340 366l-161 -306c20 -26 47 -42 83 -42c51 0 118 38 118 181c0 64 -14 124 -40 167zM437 551l-65 -125c61 -38 98 -106 98 -198c0 -99 -70 -238 -222 -238c-34 0 -65 7 -94 21l-65 -123h-37l73 140c-60 42 -96 115 -96 200c0 123 82 232 216 232c35 0 67 -6 96 -18
l57 109h39zM158 92l159 304c-22 23 -48 36 -80 36c-63 0 -118 -52 -118 -156c0 -43 8 -125 39 -184z" />
    <glyph glyph-name="oe" unicode="&#x153;" horiz-adv-x="722" 
d="M679 145l11 -6c-31 -67 -80 -149 -177 -149c-65 0 -105 32 -130 95c-45 -91 -119 -95 -143 -95c-94 0 -210 61 -210 231c0 59 30 239 205 239c29 0 94 -7 149 -76c23 31 56 76 131 76c41 0 159 -21 159 -183h-254c2 -52 8 -220 131 -220c64 0 107 59 128 88zM227 431
c-42 0 -107 -30 -107 -150c0 -81 4 -265 119 -265c78 0 104 76 104 190c0 57 -7 225 -116 225zM419 307h160v27c0 48 -28 97 -77 97c-81 0 -83 -95 -83 -124z" />
    <glyph glyph-name="germandbls" unicode="&#xdf;" 
d="M12 0v15c37 3 61 4 61 69v370c0 63 1 229 181 229c72 0 167 -40 167 -147c0 -69 -23 -110 -134 -158v-2c69 -9 181 -53 181 -194c0 -91 -68 -191 -177 -191c-82 0 -99 50 -99 72c0 29 19 49 45 49c25 0 40 -20 42 -40l2 -22c1 -12 3 -30 29 -30c55 0 64 69 64 152
c0 104 -42 147 -59 161c-48 38 -105 12 -105 41c0 34 124 -20 124 144c0 94 -40 138 -88 138c-87 0 -89 -91 -89 -107v-549h-145z" />
    <glyph glyph-name="onesuperior" unicode="&#xb9;" horiz-adv-x="300" 
d="M248 294v-24h-191v24c29 2 53 3 53 32v257c0 13 0 28 -7 28c-8 0 -8 0 -44 -13v23l118 55l14 -3v-343c0 -29 19 -34 57 -36z" />
    <glyph glyph-name="logicalnot" unicode="&#xac;" horiz-adv-x="564" 
d="M468 108v212h-438v66h504v-278h-66z" />
    <glyph glyph-name="mu" unicode="&#xb5;" 
d="M430 450v-358c0 -23 0 -65 32 -65c15 0 29 8 50 28v-8c-34 -47 -62 -57 -98 -57c-52 0 -69 46 -69 87h-2c-29 -51 -81 -87 -132 -87c-31 0 -85 10 -117 70l-2 -2c6 -66 36 -135 36 -195c0 -47 -10 -81 -46 -81s-46 34 -46 81c0 60 24 129 24 191v396h88v-306
c0 -54 28 -92 88 -92c51 0 94 38 106 63v335h88z" />
    <glyph glyph-name="trademark" unicode="&#x2122;" horiz-adv-x="980" 
d="M238 642v-310c0 -48 -2 -48 50 -54v-20h-171v20c52 6 50 6 50 54v310h-49c-42 0 -59 -31 -68 -68h-20v88h345v-88h-20c-9 37 -26 68 -67 68h-50zM665 256l-149 306h-2v-219c0 -44 8 -61 53 -65v-20h-131v20c44 4 52 21 52 65v249c-12 30 -40 50 -69 50v20h121l154 -309
l160 309h103v-20c-44 -2 -56 -20 -56 -55v-255c0 -48 -2 -48 50 -54v-20h-170v20c52 6 49 6 49 54v232h-2l-152 -308h-11z" />
    <glyph glyph-name="Eth" unicode="&#xd0;" horiz-adv-x="722" 
d="M16 643v19h270c240 0 399 -109 399 -333c0 -133 -79 -329 -385 -329h-284v19c76 4 88 20 88 90v206h-83v44h83v194c0 74 -11 84 -88 90zM352 359v-44h-146v-237c0 -34 12 -41 60 -41c64 0 310 0 310 291c0 84 -24 165 -93 227c-48 43 -104 70 -230 70
c-47 0 -47 -19 -47 -39v-227h146z" />
    <glyph glyph-name="onehalf" unicode="&#xbd;" horiz-adv-x="750" 
d="M600 676l-450 -690h-49l453 690h46zM222 294v-24h-191v24c29 2 53 3 53 32v257c0 13 0 28 -7 28c-8 0 -8 0 -44 -13v23l118 55l14 -3v-343c0 -29 19 -34 57 -36zM746 85l-37 -85h-253v23l98 107c50 56 81 106 81 136s-22 77 -72 77c-43 0 -71 -31 -87 -70l-25 14
c28 93 77 119 152 119c67 0 124 -41 124 -108c0 -66 -55 -120 -84 -148l-86 -85h121c24 1 36 3 51 27z" />
    <glyph glyph-name="plusminus" unicode="&#xb1;" horiz-adv-x="564" 
d="M30 0v66h504v-66h-504zM249 348v158h66v-158h219v-66h-219v-160h-66v160h-219v66h219z" />
    <glyph glyph-name="Thorn" unicode="&#xde;" horiz-adv-x="556" 
d="M296 19v-19h-280v19c84 6 84 29 84 101v433c0 71 -11 83 -84 90v19h277v-19c-79 -7 -94 -19 -91 -111h80c154 0 260 -66 260 -180c0 -78 -44 -119 -61 -135c-43 -41 -107 -59 -212 -59c-24 0 -43 1 -67 3v-52c0 -73 17 -88 94 -90zM202 461v-260c19 -2 39 -3 60 -3
c37 0 171 0 171 152c0 143 -146 144 -190 144c-30 0 -41 0 -41 -33z" />
    <glyph glyph-name="onequarter" unicode="&#xbc;" horiz-adv-x="750" 
d="M718 147v-57h-55v-90h-70v90h-180v49l203 266h47v-258h55zM593 147v176h-2l-133 -176h135zM637 676l-450 -690h-49l453 690h46zM228 294v-24h-191v24c29 2 53 3 53 32v257c0 13 0 28 -7 28c-8 0 -8 0 -44 -13v23l118 55l14 -3v-343c0 -29 19 -34 57 -36z" />
    <glyph glyph-name="divide" unicode="&#xf7;" horiz-adv-x="564" 
d="M534 220h-504v66h504v-66zM282 405c-21 0 -55 16 -55 54c0 32 25 57 55 57s56 -26 56 -57c0 -37 -35 -54 -56 -54zM282 -10c-21 0 -55 16 -55 54c0 32 25 57 55 57s56 -26 56 -57c0 -37 -35 -54 -56 -54z" />
    <glyph glyph-name="brokenbar" unicode="&#xa6;" horiz-adv-x="200" 
d="M67 -14v276h66v-276h-66zM67 400v276h66v-276h-66z" />
    <glyph glyph-name="degree" unicode="&#xb0;" horiz-adv-x="400" 
d="M200 424c58 0 104 51 104 109s-46 109 -104 109s-104 -51 -104 -109s46 -109 104 -109zM200 390c-80 0 -143 63 -143 143s63 143 143 143s143 -63 143 -143s-63 -143 -143 -143z" />
    <glyph glyph-name="thorn" unicode="&#xfe;" 
d="M75 -131v704c0 30 0 51 -44 51c-6 0 -16 0 -22 -1v16c48 13 97 27 145 44l5 -3v-295h-1l2 -2c22 28 68 77 145 77c89 0 165 -82 165 -215c0 -115 -71 -255 -210 -255c-40 0 -68 11 -101 43v-157c0 -64 16 -75 88 -75v-18h-242v18c66 4 70 25 70 68zM159 334v-246
c0 -23 47 -66 102 -66c33 0 123 19 123 193c0 23 -5 185 -127 185c-36 0 -92 -28 -98 -66z" />
    <glyph glyph-name="threequarters" unicode="&#xbe;" horiz-adv-x="750" 
d="M718 147v-57h-55v-90h-70v90h-180v49l203 266h47v-258h55zM593 147v176h-2l-133 -176h135zM637 676l-450 -690h-49l453 690h46zM94 460l-1 29c59 18 96 43 96 81c0 26 -15 50 -57 50c-48 0 -68 -32 -86 -57l-25 18c34 73 88 95 132 95c84 0 112 -52 112 -81
c0 -32 -22 -58 -60 -84c33 -12 86 -42 86 -118c0 -49 -51 -131 -200 -131c-15 0 -76 3 -76 51c0 17 13 36 35 36c30 0 53 -39 87 -39c60 0 73 41 73 66c0 51 -34 84 -93 87z" />
    <glyph glyph-name="twosuperior" unicode="&#xb2;" horiz-adv-x="300" 
d="M296 355l-37 -85h-253v23l98 107c50 56 81 106 81 136s-22 77 -72 77c-43 0 -71 -31 -87 -70l-25 14c28 93 77 119 152 119c67 0 124 -41 124 -108c0 -66 -55 -120 -84 -148l-86 -85h121c24 1 36 3 51 27z" />
    <glyph glyph-name="registered" unicode="&#xae;" horiz-adv-x="760" 
d="M219 505v15h177c59 0 115 -28 115 -91c0 -52 -34 -90 -79 -105l57 -79c26 -36 57 -70 76 -85v-8h-64c-32 0 -57 68 -121 162h-48v-99c0 -43 -1 -43 49 -48v-15h-162v15c50 5 49 5 49 48v241c0 45 1 44 -49 49zM332 501v-168h43c49 0 69 38 69 91c0 57 -32 77 -71 77h-41z
M722 330c0 -191 -149 -344 -340 -344c-194 0 -344 153 -344 344s150 346 344 346c191 0 340 -155 340 -346zM667 330c0 162 -125 304 -285 304c-163 0 -289 -143 -289 -304c0 -160 127 -302 289 -302c158 0 285 142 285 302z" />
    <glyph glyph-name="minus" unicode="&#x2212;" horiz-adv-x="564" 
d="M534 220h-504v66h504v-66z" />
    <glyph glyph-name="eth" unicode="&#xf0;" 
d="M263 18c51 0 118 38 118 181c0 155 -70 233 -143 233c-63 0 -119 -52 -119 -154c0 -76 24 -260 144 -260zM270 575l-123 -65l-33 30l121 64c-40 29 -85 49 -133 56l42 23c59 -4 111 -21 152 -47l95 50l33 -30l-91 -48c93 -78 138 -205 138 -324
c0 -136 -70 -294 -222 -294c-129 0 -220 103 -220 230c0 131 83 240 216 240c42 0 76 -16 119 -57l2 2c-10 60 -45 121 -96 170z" />
    <glyph glyph-name="multiply" unicode="&#xd7;" horiz-adv-x="564" 
d="M234 253l-196 196l48 48l196 -197l197 197l48 -48l-197 -196l197 -197l-48 -48l-197 197l-196 -197l-48 48z" />
    <glyph glyph-name="threesuperior" unicode="&#xb3;" horiz-adv-x="300" 
d="M94 460l-1 29c59 18 96 43 96 81c0 26 -15 50 -57 50c-48 0 -68 -32 -86 -57l-25 18c34 73 88 95 132 95c84 0 112 -52 112 -81c0 -32 -22 -58 -60 -84c33 -12 86 -42 86 -118c0 -49 -51 -131 -200 -131c-15 0 -76 3 -76 51c0 17 13 36 35 36c30 0 53 -39 87 -39
c60 0 73 41 73 66c0 51 -34 84 -93 87z" />
    <glyph glyph-name="copyright" unicode="&#xa9;" horiz-adv-x="760" 
d="M382 676c191 0 340 -155 340 -346s-149 -344 -340 -344c-194 0 -344 153 -344 344s150 346 344 346zM382 634c-163 0 -289 -143 -289 -304c0 -160 127 -302 289 -302c158 0 285 142 285 302c0 162 -125 304 -285 304zM531 247h16l-16 -70c0 -11 -10 -14 -26 -19
c-19 -6 -58 -17 -105 -17c-115 0 -210 57 -210 198c0 83 65 193 217 193c51 0 76 -10 103 -19c15 -4 21 -12 21 -20v-70h-17c-4 42 -32 89 -110 89c-93 0 -136 -72 -137 -169c-1 -105 41 -182 143 -182c66 0 101 40 121 86z" />
    <glyph glyph-name="Aacute" unicode="&#xc1;" horiz-adv-x="722" 
d="M706 19v-19h-255v19c37 0 70 1 70 38c0 16 -13 49 -19 63l-41 96h-262l-46 -117c-5 -13 -8 -27 -8 -38c0 -42 47 -42 68 -42v-19h-198v19c16 1 33 3 51 22c23 25 54 98 73 142l208 491h20l249 -568c32 -73 46 -84 90 -87zM216 257h231l-116 275zM328 719h-40l147 148
c23 23 30 23 44 23c32 0 33 -28 33 -32c0 -23 -20 -36 -30 -42z" />
    <glyph glyph-name="Acircumflex" unicode="&#xc2;" horiz-adv-x="722" 
d="M706 19v-19h-255v19c37 0 70 1 70 38c0 16 -13 49 -19 63l-41 96h-262l-46 -117c-5 -13 -8 -27 -8 -38c0 -42 47 -42 68 -42v-19h-198v19c16 1 33 3 51 22c23 25 54 98 73 142l208 491h20l249 -568c32 -73 46 -84 90 -87zM216 257h231l-116 275zM517 719h-34l-122 103
l-121 -103h-34l124 167h62z" />
    <glyph glyph-name="Adieresis" unicode="&#xc4;" horiz-adv-x="722" 
d="M706 19v-19h-255v19c37 0 70 1 70 38c0 16 -13 49 -19 63l-41 96h-262l-46 -117c-5 -13 -8 -27 -8 -38c0 -42 47 -42 68 -42v-19h-198v19c16 1 33 3 51 22c23 25 54 98 73 142l208 491h20l249 -568c32 -73 46 -84 90 -87zM216 257h231l-116 275zM213 785
c0 19 15 50 48 50c27 0 50 -23 50 -50c0 -28 -23 -50 -50 -50c-34 0 -48 30 -48 50zM412 785c0 19 15 50 48 50c27 0 50 -23 50 -50c0 -28 -23 -50 -50 -50c-34 0 -48 30 -48 50z" />
    <glyph glyph-name="Agrave" unicode="&#xc0;" horiz-adv-x="722" 
d="M706 19v-19h-255v19c37 0 70 1 70 38c0 16 -13 49 -19 63l-41 96h-262l-46 -117c-5 -13 -8 -27 -8 -38c0 -42 47 -42 68 -42v-19h-198v19c16 1 33 3 51 22c23 25 54 98 73 142l208 491h20l249 -568c32 -73 46 -84 90 -87zM216 257h231l-116 275zM437 719h-40l-154 97
c-12 8 -29 22 -29 43c0 2 1 31 32 31c16 0 19 0 44 -23z" />
    <glyph glyph-name="Aring" unicode="&#xc5;" horiz-adv-x="722" 
d="M706 19v-19h-255v19c37 0 70 1 70 38c0 16 -13 49 -19 63l-41 96h-262l-46 -117c-5 -13 -8 -27 -8 -38c0 -42 47 -42 68 -42v-19h-198v19c16 1 33 3 51 22c23 25 54 98 73 142l208 491h20l249 -568c32 -73 46 -84 90 -87zM216 257h231l-116 275zM252 798
c0 54 43 100 99 100c55 0 100 -45 100 -100s-45 -99 -100 -99c-57 0 -99 45 -99 99zM351 864c-45 0 -65 -41 -65 -65c0 -25 19 -66 64 -66c38 0 67 29 67 65s-29 66 -66 66z" />
    <glyph glyph-name="Atilde" unicode="&#xc3;" horiz-adv-x="722" 
d="M706 19v-19h-255v19c37 0 70 1 70 38c0 16 -13 49 -19 63l-41 96h-262l-46 -117c-5 -13 -8 -27 -8 -38c0 -42 47 -42 68 -42v-19h-198v19c16 1 33 3 51 22c23 25 54 98 73 142l208 491h20l249 -568c32 -73 46 -84 90 -87zM216 257h231l-116 275zM497 850h29
c-9 -34 -27 -106 -105 -106c-31 0 -52 10 -81 24l-23 11c-12 6 -25 11 -37 11c-38 0 -49 -29 -55 -46h-29c8 44 38 101 105 101c21 0 43 -6 66 -18l24 -12c12 -6 33 -15 48 -15c27 0 41 10 58 50z" />
    <glyph glyph-name="Ccedilla" unicode="&#xc7;" horiz-adv-x="667" 
d="M620 451h-23c-25 105 -97 185 -220 185c-50 0 -108 -20 -150 -61c-39 -38 -83 -102 -83 -246c0 -212 119 -299 245 -299c123 0 195 71 226 101l18 -18c-1 -2 -87 -127 -271 -127c-161 0 -334 96 -334 345c0 224 168 345 340 345c89 0 154 -33 176 -33c5 0 38 0 46 33h21z
M265 -99l41 99h35l-25 -65c9 2 16 3 28 3c52 0 84 -25 84 -70c0 -41 -36 -83 -121 -83c-49 0 -73 10 -88 16l14 31c17 -7 54 -12 62 -12c32 0 58 11 58 45c0 23 -15 35 -45 35c-11 0 -26 0 -36 -4z" />
    <glyph glyph-name="Eacute" unicode="&#xc9;" horiz-adv-x="611" 
d="M597 169l-45 -169h-540v19c64 4 87 13 87 90v444c0 79 -24 85 -87 90v19h531l3 -143h-25c-15 89 -41 105 -152 105h-135c-21 0 -33 0 -33 -34v-222h154c89 0 99 24 110 95h23v-232h-23c-12 80 -27 94 -110 95l-154 2v-248c0 -41 0 -42 149 -42c125 0 175 30 219 131h28z
M272 719h-40l147 148c23 23 30 23 44 23c32 0 33 -28 33 -32c0 -23 -20 -36 -30 -42z" />
    <glyph glyph-name="Ecircumflex" unicode="&#xca;" horiz-adv-x="611" 
d="M597 169l-45 -169h-540v19c64 4 87 13 87 90v444c0 79 -24 85 -87 90v19h531l3 -143h-25c-15 89 -41 105 -152 105h-135c-21 0 -33 0 -33 -34v-222h154c89 0 99 24 110 95h23v-232h-23c-12 80 -27 94 -110 95l-154 2v-248c0 -41 0 -42 149 -42c125 0 175 30 219 131h28z
M461 719h-34l-122 103l-121 -103h-34l124 167h62z" />
    <glyph glyph-name="Edieresis" unicode="&#xcb;" horiz-adv-x="611" 
d="M597 169l-45 -169h-540v19c64 4 87 13 87 90v444c0 79 -24 85 -87 90v19h531l3 -143h-25c-15 89 -41 105 -152 105h-135c-21 0 -33 0 -33 -34v-222h154c89 0 99 24 110 95h23v-232h-23c-12 80 -27 94 -110 95l-154 2v-248c0 -41 0 -42 149 -42c125 0 175 30 219 131h28z
M157 785c0 19 15 50 48 50c27 0 50 -23 50 -50c0 -28 -23 -50 -50 -50c-34 0 -48 30 -48 50zM356 785c0 19 15 50 48 50c27 0 50 -23 50 -50c0 -28 -23 -50 -50 -50c-34 0 -48 30 -48 50z" />
    <glyph glyph-name="Egrave" unicode="&#xc8;" horiz-adv-x="611" 
d="M597 169l-45 -169h-540v19c64 4 87 13 87 90v444c0 79 -24 85 -87 90v19h531l3 -143h-25c-15 89 -41 105 -152 105h-135c-21 0 -33 0 -33 -34v-222h154c89 0 99 24 110 95h23v-232h-23c-12 80 -27 94 -110 95l-154 2v-248c0 -41 0 -42 149 -42c125 0 175 30 219 131h28z
M381 719h-40l-154 97c-12 8 -29 22 -29 43c0 2 1 31 32 31c16 0 19 0 44 -23z" />
    <glyph glyph-name="Iacute" unicode="&#xcd;" horiz-adv-x="333" 
d="M18 0v19c85 2 97 19 97 90v444c0 74 -14 86 -97 90v19h297v-19c-73 -3 -98 -10 -98 -90v-444c0 -78 24 -88 98 -90v-19h-297zM133 719h-40l147 148c23 23 30 23 44 23c32 0 33 -28 33 -32c0 -23 -20 -36 -30 -42z" />
    <glyph glyph-name="Icircumflex" unicode="&#xce;" horiz-adv-x="333" 
d="M18 0v19c85 2 97 19 97 90v444c0 74 -14 86 -97 90v19h297v-19c-73 -3 -98 -10 -98 -90v-444c0 -78 24 -88 98 -90v-19h-297zM322 719h-34l-122 103l-121 -103h-34l124 167h62z" />
    <glyph glyph-name="Idieresis" unicode="&#xcf;" horiz-adv-x="333" 
d="M18 0v19c85 2 97 19 97 90v444c0 74 -14 86 -97 90v19h297v-19c-73 -3 -98 -10 -98 -90v-444c0 -78 24 -88 98 -90v-19h-297zM18 785c0 19 15 50 48 50c27 0 50 -23 50 -50c0 -28 -23 -50 -50 -50c-34 0 -48 30 -48 50zM217 785c0 19 15 50 48 50c27 0 50 -23 50 -50
c0 -28 -23 -50 -50 -50c-34 0 -48 30 -48 50z" />
    <glyph glyph-name="Igrave" unicode="&#xcc;" horiz-adv-x="333" 
d="M18 0v19c85 2 97 19 97 90v444c0 74 -14 86 -97 90v19h297v-19c-73 -3 -98 -10 -98 -90v-444c0 -78 24 -88 98 -90v-19h-297zM242 719h-40l-154 97c-12 8 -29 22 -29 43c0 2 1 31 32 31c16 0 19 0 44 -23z" />
    <glyph glyph-name="Ntilde" unicode="&#xd1;" horiz-adv-x="722" 
d="M707 662v-19c-63 -7 -95 -11 -95 -128v-526h-17l-440 548h-2v-390c0 -103 21 -125 94 -128v-19h-235v19c76 5 97 20 97 128v441c-41 50 -57 55 -97 55v19h171l383 -481h2v334c0 115 -28 123 -96 128v19h235zM497 850h29c-9 -34 -27 -106 -105 -106c-31 0 -52 10 -81 24
l-23 11c-12 6 -25 11 -37 11c-38 0 -49 -29 -55 -46h-29c8 44 38 101 105 101c21 0 43 -6 66 -18l24 -12c12 -6 33 -15 48 -15c27 0 41 10 58 50z" />
    <glyph glyph-name="Oacute" unicode="&#xd3;" horiz-adv-x="722" 
d="M361 -14c-181 0 -327 131 -327 344c0 230 163 346 327 346s327 -116 327 -346c0 -213 -146 -344 -327 -344zM361 22c111 0 213 89 213 309c0 228 -111 309 -213 309s-213 -81 -213 -309c0 -220 102 -309 213 -309zM328 719h-40l147 148c23 23 30 23 44 23
c32 0 33 -28 33 -32c0 -23 -20 -36 -30 -42z" />
    <glyph glyph-name="Ocircumflex" unicode="&#xd4;" horiz-adv-x="722" 
d="M361 -14c-181 0 -327 131 -327 344c0 230 163 346 327 346s327 -116 327 -346c0 -213 -146 -344 -327 -344zM361 22c111 0 213 89 213 309c0 228 -111 309 -213 309s-213 -81 -213 -309c0 -220 102 -309 213 -309zM517 719h-34l-122 103l-121 -103h-34l124 167h62z" />
    <glyph glyph-name="Odieresis" unicode="&#xd6;" horiz-adv-x="722" 
d="M361 -14c-181 0 -327 131 -327 344c0 230 163 346 327 346s327 -116 327 -346c0 -213 -146 -344 -327 -344zM361 22c111 0 213 89 213 309c0 228 -111 309 -213 309s-213 -81 -213 -309c0 -220 102 -309 213 -309zM213 785c0 19 15 50 48 50c27 0 50 -23 50 -50
c0 -28 -23 -50 -50 -50c-34 0 -48 30 -48 50zM412 785c0 19 15 50 48 50c27 0 50 -23 50 -50c0 -28 -23 -50 -50 -50c-34 0 -48 30 -48 50z" />
    <glyph glyph-name="Ograve" unicode="&#xd2;" horiz-adv-x="722" 
d="M361 -14c-181 0 -327 131 -327 344c0 230 163 346 327 346s327 -116 327 -346c0 -213 -146 -344 -327 -344zM361 22c111 0 213 89 213 309c0 228 -111 309 -213 309s-213 -81 -213 -309c0 -220 102 -309 213 -309zM437 719h-40l-154 97c-12 8 -29 22 -29 43
c0 2 1 31 32 31c16 0 19 0 44 -23z" />
    <glyph glyph-name="Otilde" unicode="&#xd5;" horiz-adv-x="722" 
d="M361 -14c-181 0 -327 131 -327 344c0 230 163 346 327 346s327 -116 327 -346c0 -213 -146 -344 -327 -344zM361 22c111 0 213 89 213 309c0 228 -111 309 -213 309s-213 -81 -213 -309c0 -220 102 -309 213 -309zM497 850h29c-9 -34 -27 -106 -105 -106
c-31 0 -52 10 -81 24l-23 11c-12 6 -25 11 -37 11c-38 0 -49 -29 -55 -46h-29c8 44 38 101 105 101c21 0 43 -6 66 -18l24 -12c12 -6 33 -15 48 -15c27 0 41 10 58 50z" />
    <glyph glyph-name="Scaron" unicode="&#x160;" horiz-adv-x="556" 
d="M447 676l22 -213h-25c-17 82 -81 172 -186 172c-50 0 -101 -31 -101 -93c0 -150 334 -170 334 -375c0 -85 -68 -181 -211 -181c-76 0 -125 34 -155 34c-21 0 -31 -17 -31 -33h-22l-30 212h23c19 -47 70 -177 205 -177c80 0 120 57 120 111c0 57 -16 91 -163 177
c-92 53 -156 97 -156 196c0 114 91 170 181 170c60 0 114 -34 139 -34c28 0 33 23 35 34h21zM434 886l-125 -167h-62l-124 167h34l121 -103l122 103h34z" />
    <glyph glyph-name="Uacute" unicode="&#xda;" horiz-adv-x="722" 
d="M705 662v-19c-77 -8 -94 -23 -94 -128v-261c0 -80 0 -268 -259 -268c-248 0 -248 195 -248 255v312c0 74 -14 85 -90 90v19h283v-19c-79 -6 -91 -19 -91 -90v-320c0 -64 0 -203 174 -203c78 0 135 32 164 79c13 22 23 55 23 136v270c0 107 -24 124 -94 128v19h232z
M328 719h-40l147 148c23 23 30 23 44 23c32 0 33 -28 33 -32c0 -23 -20 -36 -30 -42z" />
    <glyph glyph-name="Ucircumflex" unicode="&#xdb;" horiz-adv-x="722" 
d="M705 662v-19c-77 -8 -94 -23 -94 -128v-261c0 -80 0 -268 -259 -268c-248 0 -248 195 -248 255v312c0 74 -14 85 -90 90v19h283v-19c-79 -6 -91 -19 -91 -90v-320c0 -64 0 -203 174 -203c78 0 135 32 164 79c13 22 23 55 23 136v270c0 107 -24 124 -94 128v19h232z
M517 719h-34l-122 103l-121 -103h-34l124 167h62z" />
    <glyph glyph-name="Udieresis" unicode="&#xdc;" horiz-adv-x="722" 
d="M705 662v-19c-77 -8 -94 -23 -94 -128v-261c0 -80 0 -268 -259 -268c-248 0 -248 195 -248 255v312c0 74 -14 85 -90 90v19h283v-19c-79 -6 -91 -19 -91 -90v-320c0 -64 0 -203 174 -203c78 0 135 32 164 79c13 22 23 55 23 136v270c0 107 -24 124 -94 128v19h232z
M213 785c0 19 15 50 48 50c27 0 50 -23 50 -50c0 -28 -23 -50 -50 -50c-34 0 -48 30 -48 50zM412 785c0 19 15 50 48 50c27 0 50 -23 50 -50c0 -28 -23 -50 -50 -50c-34 0 -48 30 -48 50z" />
    <glyph glyph-name="Ugrave" unicode="&#xd9;" horiz-adv-x="722" 
d="M705 662v-19c-77 -8 -94 -23 -94 -128v-261c0 -80 0 -268 -259 -268c-248 0 -248 195 -248 255v312c0 74 -14 85 -90 90v19h283v-19c-79 -6 -91 -19 -91 -90v-320c0 -64 0 -203 174 -203c78 0 135 32 164 79c13 22 23 55 23 136v270c0 107 -24 124 -94 128v19h232z
M437 719h-40l-154 97c-12 8 -29 22 -29 43c0 2 1 31 32 31c16 0 19 0 44 -23z" />
    <glyph glyph-name="Yacute" unicode="&#xdd;" horiz-adv-x="722" 
d="M703 662v-19c-36 -4 -69 -8 -138 -114l-148 -226v-194c0 -72 13 -89 103 -90v-19h-306v19c98 2 101 25 101 101v174l-131 192c-102 150 -117 153 -162 157v19h280v-19c-46 -2 -71 -3 -71 -31c0 -11 8 -30 17 -43l148 -222l143 226c7 11 14 23 14 37c0 31 -38 33 -69 33
v19h219zM328 719h-40l147 148c23 23 30 23 44 23c32 0 33 -28 33 -32c0 -23 -20 -36 -30 -42z" />
    <glyph glyph-name="Ydieresis" unicode="&#x178;" horiz-adv-x="722" 
d="M703 662v-19c-36 -4 -69 -8 -138 -114l-148 -226v-194c0 -72 13 -89 103 -90v-19h-306v19c98 2 101 25 101 101v174l-131 192c-102 150 -117 153 -162 157v19h280v-19c-46 -2 -71 -3 -71 -31c0 -11 8 -30 17 -43l148 -222l143 226c7 11 14 23 14 37c0 31 -38 33 -69 33
v19h219zM213 785c0 19 15 50 48 50c27 0 50 -23 50 -50c0 -28 -23 -50 -50 -50c-34 0 -48 30 -48 50zM412 785c0 19 15 50 48 50c27 0 50 -23 50 -50c0 -28 -23 -50 -50 -50c-34 0 -48 30 -48 50z" />
    <glyph glyph-name="Zcaron" unicode="&#x17d;" horiz-adv-x="611" 
d="M574 176h23l-24 -176h-564v15l437 609h-221c-143 0 -155 -66 -168 -133h-26l20 171h526v-15l-432 -609h257c131 0 150 65 172 138zM461 886l-125 -167h-62l-124 167h34l121 -103l122 103h34z" />
    <glyph glyph-name="aacute" unicode="&#xe1;" horiz-adv-x="444" 
d="M287 123v145c-151 -50 -162 -106 -162 -140v-2c0 -47 29 -78 66 -78c22 0 53 13 62 18c31 15 34 27 34 57zM442 66v-26c-42 -49 -73 -50 -89 -50c-18 0 -60 1 -65 73c-37 -33 -90 -73 -145 -73c-54 0 -106 37 -106 104c0 100 87 134 250 198v61c0 72 -47 83 -77 83
c-33 0 -71 -18 -71 -49c0 -15 5 -30 5 -39c0 -21 -19 -43 -45 -43c-31 0 -43 28 -43 44c0 40 47 111 163 111c149 0 149 -100 149 -160v-195c0 -29 0 -58 29 -58c21 0 34 10 45 19zM189 507h-40l147 148c23 23 30 23 44 23c32 0 33 -28 33 -32c0 -23 -20 -36 -30 -42z" />
    <glyph glyph-name="acircumflex" unicode="&#xe2;" horiz-adv-x="444" 
d="M287 123v145c-151 -50 -162 -106 -162 -140v-2c0 -47 29 -78 66 -78c22 0 53 13 62 18c31 15 34 27 34 57zM442 66v-26c-42 -49 -73 -50 -89 -50c-18 0 -60 1 -65 73c-37 -33 -90 -73 -145 -73c-54 0 -106 37 -106 104c0 100 87 134 250 198v61c0 72 -47 83 -77 83
c-33 0 -71 -18 -71 -49c0 -15 5 -30 5 -39c0 -21 -19 -43 -45 -43c-31 0 -43 28 -43 44c0 40 47 111 163 111c149 0 149 -100 149 -160v-195c0 -29 0 -58 29 -58c21 0 34 10 45 19zM378 507h-34l-122 103l-121 -103h-34l124 167h62z" />
    <glyph glyph-name="adieresis" unicode="&#xe4;" horiz-adv-x="444" 
d="M287 123v145c-151 -50 -162 -106 -162 -140v-2c0 -47 29 -78 66 -78c22 0 53 13 62 18c31 15 34 27 34 57zM442 66v-26c-42 -49 -73 -50 -89 -50c-18 0 -60 1 -65 73c-37 -33 -90 -73 -145 -73c-54 0 -106 37 -106 104c0 100 87 134 250 198v61c0 72 -47 83 -77 83
c-33 0 -71 -18 -71 -49c0 -15 5 -30 5 -39c0 -21 -19 -43 -45 -43c-31 0 -43 28 -43 44c0 40 47 111 163 111c149 0 149 -100 149 -160v-195c0 -29 0 -58 29 -58c21 0 34 10 45 19zM74 573c0 19 15 50 48 50c27 0 50 -23 50 -50c0 -28 -23 -50 -50 -50c-34 0 -48 30 -48 50z
M273 573c0 19 15 50 48 50c27 0 50 -23 50 -50c0 -28 -23 -50 -50 -50c-34 0 -48 30 -48 50z" />
    <glyph glyph-name="agrave" unicode="&#xe0;" horiz-adv-x="444" 
d="M287 123v145c-151 -50 -162 -106 -162 -140v-2c0 -47 29 -78 66 -78c22 0 53 13 62 18c31 15 34 27 34 57zM442 66v-26c-42 -49 -73 -50 -89 -50c-18 0 -60 1 -65 73c-37 -33 -90 -73 -145 -73c-54 0 -106 37 -106 104c0 100 87 134 250 198v61c0 72 -47 83 -77 83
c-33 0 -71 -18 -71 -49c0 -15 5 -30 5 -39c0 -21 -19 -43 -45 -43c-31 0 -43 28 -43 44c0 40 47 111 163 111c149 0 149 -100 149 -160v-195c0 -29 0 -58 29 -58c21 0 34 10 45 19zM298 507h-40l-154 97c-12 8 -29 22 -29 43c0 2 1 31 32 31c16 0 19 0 44 -23z" />
    <glyph glyph-name="aring" unicode="&#xe5;" horiz-adv-x="444" 
d="M287 123v145c-151 -50 -162 -106 -162 -140v-2c0 -47 29 -78 66 -78c22 0 53 13 62 18c31 15 34 27 34 57zM442 66v-26c-42 -49 -73 -50 -89 -50c-18 0 -60 1 -65 73c-37 -33 -90 -73 -145 -73c-54 0 -106 37 -106 104c0 100 87 134 250 198v61c0 72 -47 83 -77 83
c-33 0 -71 -18 -71 -49c0 -15 5 -30 5 -39c0 -21 -19 -43 -45 -43c-31 0 -43 28 -43 44c0 40 47 111 163 111c149 0 149 -100 149 -160v-195c0 -29 0 -58 29 -58c21 0 34 10 45 19zM123 611c0 54 43 100 99 100c55 0 100 -45 100 -100s-45 -99 -100 -99c-57 0 -99 45 -99 99
zM222 677c-45 0 -65 -41 -65 -65c0 -25 19 -66 64 -66c38 0 67 29 67 65s-29 66 -66 66z" />
    <glyph glyph-name="atilde" unicode="&#xe3;" horiz-adv-x="444" 
d="M287 123v145c-151 -50 -162 -106 -162 -140v-2c0 -47 29 -78 66 -78c22 0 53 13 62 18c31 15 34 27 34 57zM442 66v-26c-42 -49 -73 -50 -89 -50c-18 0 -60 1 -65 73c-37 -33 -90 -73 -145 -73c-54 0 -106 37 -106 104c0 100 87 134 250 198v61c0 72 -47 83 -77 83
c-33 0 -71 -18 -71 -49c0 -15 5 -30 5 -39c0 -21 -19 -43 -45 -43c-31 0 -43 28 -43 44c0 40 47 111 163 111c149 0 149 -100 149 -160v-195c0 -29 0 -58 29 -58c21 0 34 10 45 19zM358 638h29c-9 -34 -27 -106 -105 -106c-31 0 -52 10 -81 24l-23 11c-12 6 -25 11 -37 11
c-38 0 -49 -29 -55 -46h-29c8 44 38 101 105 101c21 0 43 -6 66 -18l24 -12c12 -6 33 -15 48 -15c27 0 41 10 58 50z" />
    <glyph glyph-name="ccedilla" unicode="&#xe7;" horiz-adv-x="444" 
d="M398 156l14 -9c-54 -114 -119 -157 -200 -157c-80 0 -187 65 -187 223c0 164 116 247 224 247c36 0 81 -15 106 -31c30 -21 43 -52 43 -70c0 -23 -16 -42 -46 -44c-26 -2 -43 24 -49 46l-6 22c-8 30 -13 48 -66 48c-37 0 -129 -31 -129 -178c0 -115 69 -191 153 -191
c72 0 109 43 143 94zM154 -99l41 99h35l-25 -65c9 2 16 3 28 3c52 0 84 -25 84 -70c0 -41 -36 -83 -121 -83c-49 0 -73 10 -88 16l14 31c17 -7 54 -12 62 -12c32 0 58 11 58 45c0 23 -15 35 -45 35c-11 0 -26 0 -36 -4z" />
    <glyph glyph-name="eacute" unicode="&#xe9;" horiz-adv-x="444" 
d="M408 164l16 -7c-10 -31 -68 -167 -212 -167c-111 0 -187 82 -187 224c0 185 124 246 204 246c94 0 165 -52 176 -183h-311c12 -177 93 -218 159 -218c89 0 132 68 155 105zM97 309h206c-7 48 -17 115 -96 115c-55 0 -94 -27 -110 -115zM189 507h-40l147 148
c23 23 30 23 44 23c32 0 33 -28 33 -32c0 -23 -20 -36 -30 -42z" />
    <glyph glyph-name="ecircumflex" unicode="&#xea;" horiz-adv-x="444" 
d="M408 164l16 -7c-10 -31 -68 -167 -212 -167c-111 0 -187 82 -187 224c0 185 124 246 204 246c94 0 165 -52 176 -183h-311c12 -177 93 -218 159 -218c89 0 132 68 155 105zM97 309h206c-7 48 -17 115 -96 115c-55 0 -94 -27 -110 -115zM378 507h-34l-122 103l-121 -103
h-34l124 167h62z" />
    <glyph glyph-name="edieresis" unicode="&#xeb;" horiz-adv-x="444" 
d="M408 164l16 -7c-10 -31 -68 -167 -212 -167c-111 0 -187 82 -187 224c0 185 124 246 204 246c94 0 165 -52 176 -183h-311c12 -177 93 -218 159 -218c89 0 132 68 155 105zM97 309h206c-7 48 -17 115 -96 115c-55 0 -94 -27 -110 -115zM74 573c0 19 15 50 48 50
c27 0 50 -23 50 -50c0 -28 -23 -50 -50 -50c-34 0 -48 30 -48 50zM273 573c0 19 15 50 48 50c27 0 50 -23 50 -50c0 -28 -23 -50 -50 -50c-34 0 -48 30 -48 50z" />
    <glyph glyph-name="egrave" unicode="&#xe8;" horiz-adv-x="444" 
d="M408 164l16 -7c-10 -31 -68 -167 -212 -167c-111 0 -187 82 -187 224c0 185 124 246 204 246c94 0 165 -52 176 -183h-311c12 -177 93 -218 159 -218c89 0 132 68 155 105zM97 309h206c-7 48 -17 115 -96 115c-55 0 -94 -27 -110 -115zM298 507h-40l-154 97
c-12 8 -29 22 -29 43c0 2 1 31 32 31c16 0 19 0 44 -23z" />
    <glyph glyph-name="iacute" unicode="&#xed;" horiz-adv-x="278" 
d="M16 0v15c62 3 79 9 79 87v232c0 59 -19 60 -35 60c-14 0 -27 -2 -40 -4v15l155 55l4 -3v-355c0 -66 5 -83 74 -87v-15h-237zM106 507h-40l147 148c23 23 30 23 44 23c32 0 33 -28 33 -32c0 -23 -20 -36 -30 -42z" />
    <glyph glyph-name="icircumflex" unicode="&#xee;" horiz-adv-x="278" 
d="M16 0v15c62 3 79 9 79 87v232c0 59 -19 60 -35 60c-14 0 -27 -2 -40 -4v15l155 55l4 -3v-355c0 -66 5 -83 74 -87v-15h-237zM295 507h-34l-122 103l-121 -103h-34l124 167h62z" />
    <glyph glyph-name="idieresis" unicode="&#xef;" horiz-adv-x="278" 
d="M16 0v15c62 3 79 9 79 87v232c0 59 -19 60 -35 60c-14 0 -27 -2 -40 -4v15l155 55l4 -3v-355c0 -66 5 -83 74 -87v-15h-237zM-9 573c0 19 15 50 48 50c27 0 50 -23 50 -50c0 -28 -23 -50 -50 -50c-34 0 -48 30 -48 50zM190 573c0 19 15 50 48 50c27 0 50 -23 50 -50
c0 -28 -23 -50 -50 -50c-34 0 -48 30 -48 50z" />
    <glyph glyph-name="igrave" unicode="&#xec;" horiz-adv-x="278" 
d="M16 0v15c62 3 79 9 79 87v232c0 59 -19 60 -35 60c-14 0 -27 -2 -40 -4v15l155 55l4 -3v-355c0 -66 5 -83 74 -87v-15h-237zM215 507h-40l-154 97c-12 8 -29 22 -29 43c0 2 1 31 32 31c16 0 19 0 44 -23z" />
    <glyph glyph-name="ntilde" unicode="&#xf1;" 
d="M80 90v248c0 63 -19 64 -35 64c-14 0 -25 -2 -29 -4v17c45 13 92 28 138 45l7 -2v-79c49 46 87 81 146 81c46 0 117 -27 117 -150v-229c0 -47 12 -62 61 -66v-15h-208v15c37 3 63 8 63 84v209c0 61 -18 97 -77 97c-30 0 -61 -20 -99 -57v-281c0 -33 14 -49 66 -52v-15
h-212v15c47 3 62 16 62 75zM386 638h29c-9 -34 -27 -106 -105 -106c-31 0 -52 10 -81 24l-23 11c-12 6 -25 11 -37 11c-38 0 -49 -29 -55 -46h-29c8 44 38 101 105 101c21 0 43 -6 66 -18l24 -12c12 -6 33 -15 48 -15c27 0 41 10 58 50z" />
    <glyph glyph-name="oacute" unicode="&#xf3;" 
d="M245 460c131 0 225 -87 225 -232c0 -99 -70 -238 -222 -238c-129 0 -219 103 -219 238c0 123 82 232 216 232zM262 18c51 0 118 38 118 181c0 124 -51 233 -143 233c-63 0 -118 -52 -118 -156c0 -74 23 -258 143 -258zM217 507h-40l147 148c23 23 30 23 44 23
c32 0 33 -28 33 -32c0 -23 -20 -36 -30 -42z" />
    <glyph glyph-name="ocircumflex" unicode="&#xf4;" 
d="M245 460c131 0 225 -87 225 -232c0 -99 -70 -238 -222 -238c-129 0 -219 103 -219 238c0 123 82 232 216 232zM262 18c51 0 118 38 118 181c0 124 -51 233 -143 233c-63 0 -118 -52 -118 -156c0 -74 23 -258 143 -258zM406 507h-34l-122 103l-121 -103h-34l124 167h62z
" />
    <glyph glyph-name="odieresis" unicode="&#xf6;" 
d="M245 460c131 0 225 -87 225 -232c0 -99 -70 -238 -222 -238c-129 0 -219 103 -219 238c0 123 82 232 216 232zM262 18c51 0 118 38 118 181c0 124 -51 233 -143 233c-63 0 -118 -52 -118 -156c0 -74 23 -258 143 -258zM102 573c0 19 15 50 48 50c27 0 50 -23 50 -50
c0 -28 -23 -50 -50 -50c-34 0 -48 30 -48 50zM301 573c0 19 15 50 48 50c27 0 50 -23 50 -50c0 -28 -23 -50 -50 -50c-34 0 -48 30 -48 50z" />
    <glyph glyph-name="ograve" unicode="&#xf2;" 
d="M245 460c131 0 225 -87 225 -232c0 -99 -70 -238 -222 -238c-129 0 -219 103 -219 238c0 123 82 232 216 232zM262 18c51 0 118 38 118 181c0 124 -51 233 -143 233c-63 0 -118 -52 -118 -156c0 -74 23 -258 143 -258zM326 507h-40l-154 97c-12 8 -29 22 -29 43
c0 2 1 31 32 31c16 0 19 0 44 -23z" />
    <glyph glyph-name="otilde" unicode="&#xf5;" 
d="M245 460c131 0 225 -87 225 -232c0 -99 -70 -238 -222 -238c-129 0 -219 103 -219 238c0 123 82 232 216 232zM262 18c51 0 118 38 118 181c0 124 -51 233 -143 233c-63 0 -118 -52 -118 -156c0 -74 23 -258 143 -258zM386 638h29c-9 -34 -27 -106 -105 -106
c-31 0 -52 10 -81 24l-23 11c-12 6 -25 11 -37 11c-38 0 -49 -29 -55 -46h-29c8 44 38 101 105 101c21 0 43 -6 66 -18l24 -12c12 -6 33 -15 48 -15c27 0 41 10 58 50z" />
    <glyph glyph-name="scaron" unicode="&#x161;" horiz-adv-x="389" 
d="M315 314h-15c-22 102 -67 123 -111 123c-55 0 -76 -39 -76 -65c0 -20 6 -49 43 -71l108 -64c49 -30 84 -58 84 -118c0 -87 -81 -129 -145 -129c-45 0 -88 19 -116 18c-12 0 -16 -3 -22 -12h-13v156h16c12 -53 31 -140 129 -140c34 0 81 16 81 73c0 32 -20 56 -52 74
l-58 33c-62 35 -117 72 -117 146c0 56 43 122 140 122c44 0 75 -20 92 -20c9 0 14 7 17 11h11zM350 674l-125 -167h-62l-124 167h34l121 -103l122 103h34z" />
    <glyph glyph-name="uacute" unicode="&#xfa;" 
d="M479 50v-14c-54 -14 -92 -28 -139 -45l-2 2v83l-43 -43c-39 -39 -87 -43 -105 -43c-41 0 -119 24 -119 130v252c0 60 -32 62 -62 64v14h146v-326c0 -14 9 -76 75 -76c30 0 60 14 87 36c9 8 16 18 16 51v235c0 40 -4 61 -74 63v17h158v-343c0 -36 2 -59 62 -57zM217 507
h-40l147 148c23 23 30 23 44 23c32 0 33 -28 33 -32c0 -23 -20 -36 -30 -42z" />
    <glyph glyph-name="ucircumflex" unicode="&#xfb;" 
d="M479 50v-14c-54 -14 -92 -28 -139 -45l-2 2v83l-43 -43c-39 -39 -87 -43 -105 -43c-41 0 -119 24 -119 130v252c0 60 -32 62 -62 64v14h146v-326c0 -14 9 -76 75 -76c30 0 60 14 87 36c9 8 16 18 16 51v235c0 40 -4 61 -74 63v17h158v-343c0 -36 2 -59 62 -57zM406 507
h-34l-122 103l-121 -103h-34l124 167h62z" />
    <glyph glyph-name="udieresis" unicode="&#xfc;" 
d="M479 50v-14c-54 -14 -92 -28 -139 -45l-2 2v83l-43 -43c-39 -39 -87 -43 -105 -43c-41 0 -119 24 -119 130v252c0 60 -32 62 -62 64v14h146v-326c0 -14 9 -76 75 -76c30 0 60 14 87 36c9 8 16 18 16 51v235c0 40 -4 61 -74 63v17h158v-343c0 -36 2 -59 62 -57zM102 573
c0 19 15 50 48 50c27 0 50 -23 50 -50c0 -28 -23 -50 -50 -50c-34 0 -48 30 -48 50zM301 573c0 19 15 50 48 50c27 0 50 -23 50 -50c0 -28 -23 -50 -50 -50c-34 0 -48 30 -48 50z" />
    <glyph glyph-name="ugrave" unicode="&#xf9;" 
d="M479 50v-14c-54 -14 -92 -28 -139 -45l-2 2v83l-43 -43c-39 -39 -87 -43 -105 -43c-41 0 -119 24 -119 130v252c0 60 -32 62 -62 64v14h146v-326c0 -14 9 -76 75 -76c30 0 60 14 87 36c9 8 16 18 16 51v235c0 40 -4 61 -74 63v17h158v-343c0 -36 2 -59 62 -57zM326 507
h-40l-154 97c-12 8 -29 22 -29 43c0 2 1 31 32 31c16 0 19 0 44 -23z" />
    <glyph glyph-name="yacute" unicode="&#xfd;" 
d="M475 450v-15c-13 -2 -33 -4 -48 -45l-154 -408c-51 -134 -95 -200 -170 -200c-50 0 -73 32 -73 58c0 6 2 44 48 44c27 0 58 -18 71 -18c52 0 92 138 92 154c0 15 -48 107 -62 138l-114 246c-12 25 -38 30 -51 32v14h206v-15c-23 -1 -58 -2 -58 -29c0 -13 7 -29 10 -36
l115 -253l78 222c10 27 23 59 23 68c0 19 -16 29 -48 28v15h135zM217 507h-40l147 148c23 23 30 23 44 23c32 0 33 -28 33 -32c0 -23 -20 -36 -30 -42z" />
    <glyph glyph-name="ydieresis" unicode="&#xff;" 
d="M475 450v-15c-13 -2 -33 -4 -48 -45l-154 -408c-51 -134 -95 -200 -170 -200c-50 0 -73 32 -73 58c0 6 2 44 48 44c27 0 58 -18 71 -18c52 0 92 138 92 154c0 15 -48 107 -62 138l-114 246c-12 25 -38 30 -51 32v14h206v-15c-23 -1 -58 -2 -58 -29c0 -13 7 -29 10 -36
l115 -253l78 222c10 27 23 59 23 68c0 19 -16 29 -48 28v15h135zM102 573c0 19 15 50 48 50c27 0 50 -23 50 -50c0 -28 -23 -50 -50 -50c-34 0 -48 30 -48 50zM301 573c0 19 15 50 48 50c27 0 50 -23 50 -50c0 -28 -23 -50 -50 -50c-34 0 -48 30 -48 50z" />
    <glyph glyph-name="zcaron" unicode="&#x17e;" horiz-adv-x="444" 
d="M418 135l-14 -135h-377v15l266 405h-138c-73 0 -77 -34 -84 -88h-18l3 118h347v-15l-269 -405h138c106 0 112 31 128 109zM378 674l-125 -167h-62l-124 167h34l121 -103l122 103h34z" />
    </font>
</defs>
</svg>
